<svg width="24" height="25" viewBox="0 0 24 25" fill="none" xmlns="http://www.w3.org/2000/svg">
<path d="M12.2003 0.615601C10.3445 0.615799 8.51526 1.05563 6.86228 1.89906C5.20931 2.74249 3.77967 3.96552 2.69047 5.46796C1.60127 6.9704 0.883504 8.70951 0.595972 10.5428C0.308441 12.3761 0.459324 14.2515 1.03626 16.0152C1.6132 17.779 2.59977 19.381 3.91517 20.69C5.23056 21.9989 6.83735 22.9777 8.60391 23.546C10.3705 24.1143 12.2465 24.256 14.0784 23.9595C15.9103 23.663 17.6459 22.9368 19.143 21.8402L17.9839 20.2622C16.2085 21.5622 14.047 22.2262 11.848 22.147C9.64894 22.0678 7.54073 21.25 5.86349 19.8257C4.18624 18.4014 3.03777 16.4535 2.60339 14.2963C2.16901 12.1392 2.47404 9.89861 3.46928 7.93611C4.46452 5.9736 6.09191 4.40362 8.08889 3.47949C10.0859 2.55536 12.3359 2.33097 14.4761 2.84252C16.6162 3.35408 18.5216 4.57174 19.8849 6.29905C21.2481 8.02636 21.9896 10.1626 21.9898 12.363V14.3209C21.9898 14.8402 21.7835 15.3382 21.4163 15.7054C21.0491 16.0725 20.5511 16.2788 20.0319 16.2788C19.5126 16.2788 19.0146 16.0725 18.6474 15.7054C18.2802 15.3382 18.074 14.8402 18.074 14.3209V12.363C18.0787 10.981 17.5977 9.64127 16.715 8.57791C15.8323 7.51454 14.604 6.79515 13.2447 6.54545C11.8854 6.29575 10.4817 6.5316 9.27864 7.21181C8.07562 7.89202 7.14986 8.97333 6.66313 10.2668C6.17639 11.5602 6.15964 12.9836 6.61578 14.2882C7.07193 15.5927 7.97198 16.6955 9.15865 17.4039C10.3453 18.1122 11.7432 18.3811 13.1079 18.1634C14.4727 17.9458 15.7176 17.2555 16.6251 16.2132C17.0426 16.9736 17.7014 17.5731 18.4977 17.9172C19.2939 18.2613 20.1821 18.3303 21.0219 18.1133C21.8617 17.8962 22.6053 17.4056 23.1351 16.7188C23.6649 16.032 23.9508 15.1883 23.9477 14.3209V12.363C23.9443 9.24843 22.7055 6.26239 20.5032 4.06006C18.3009 1.85772 15.3148 0.618969 12.2003 0.615601ZM12.2003 16.2788C11.4258 16.2788 10.6687 16.0492 10.0247 15.6189C9.3808 15.1886 8.8789 14.577 8.58252 13.8615C8.28614 13.146 8.2086 12.3587 8.35969 11.5991C8.51078 10.8395 8.88373 10.1418 9.43136 9.59412C9.979 9.04648 10.6767 8.67354 11.4363 8.52244C12.1959 8.37135 12.9832 8.4489 13.6988 8.74528C14.4143 9.04165 15.0258 9.54355 15.4561 10.1875C15.8864 10.8315 16.1161 11.5885 16.1161 12.363C16.1161 13.4015 15.7035 14.3975 14.9691 15.1319C14.2348 15.8663 13.2388 16.2788 12.2003 16.2788Z" fill="#EDDFF0"/>
</svg>
