<svg width="20" height="23" viewBox="0 0 20 23" fill="none" xmlns="http://www.w3.org/2000/svg">
<path d="M10.0017 22.8081L9.35515 22.2538C8.46378 21.5075 0.680664 14.7857 0.680664 9.86886C0.680664 4.72099 4.85386 0.547791 10.0017 0.547791C15.1496 0.547791 19.3228 4.72099 19.3228 9.86886C19.3228 14.7857 11.5397 21.5075 10.652 22.2575L10.0017 22.8081ZM10.0017 2.56328C5.96889 2.56784 2.70076 5.83597 2.6962 9.86882C2.6962 12.9577 7.48467 17.8921 10.0017 20.1505C12.5188 17.8912 17.3073 12.9539 17.3073 9.86882C17.3027 5.83597 14.0346 2.56789 10.0017 2.56328Z" fill="#EDDFF0"/>
<path d="M10.0017 13.5637C7.96116 13.5637 6.30694 11.9094 6.30694 9.86886C6.30694 7.82829 7.96116 6.17407 10.0017 6.17407C12.0423 6.17407 13.6965 7.82829 13.6965 9.86886C13.6965 11.9094 12.0424 13.5637 10.0017 13.5637ZM10.0017 8.02142C8.98145 8.02142 8.15434 8.84853 8.15434 9.86882C8.15434 10.8891 8.98145 11.7162 10.0017 11.7162C11.022 11.7162 11.8491 10.8891 11.8491 9.86882C11.8491 8.84853 11.0221 8.02142 10.0017 8.02142Z" fill="#EDDFF0"/>
</svg>
