<svg width="25" height="25" viewBox="0 0 25 25" fill="none" xmlns="http://www.w3.org/2000/svg">
<path d="M21.6508 14.2603L21.1888 13.9934C21.2915 13.439 21.3428 12.8743 21.3428 12.3199C21.3428 11.7655 21.2915 11.2111 21.1888 10.6464L21.6508 10.3795C23.119 9.53766 23.6323 7.64861 22.7904 6.17022C22.3798 5.46182 21.7124 4.94849 20.9219 4.7329C20.1314 4.5173 19.2998 4.63023 18.5811 5.04089L18.1191 5.30782C17.2567 4.56863 16.2609 3.9937 15.1829 3.61384V3.07998C15.1829 1.38599 13.7969 0 12.1029 0C10.4089 0 9.02295 1.38599 9.02295 3.07998V3.61384C7.94495 3.9937 6.9491 4.56863 6.0867 5.30782L5.62471 5.04089C4.91631 4.63023 4.08472 4.52756 3.28392 4.7329C2.4934 4.94849 1.82607 5.46182 1.41541 6.17022C0.573546 7.63834 1.07661 9.52739 2.54473 10.3795L3.00673 10.6464C2.90406 11.2008 2.85273 11.7655 2.85273 12.3199C2.85273 12.8743 2.90406 13.4287 3.00673 13.9934L2.54473 14.2603C1.07661 15.1021 0.563279 16.9912 1.40514 18.4696C1.8158 19.178 2.48313 19.6913 3.27366 19.9069C4.06418 20.1225 4.89578 20.0096 5.61444 19.5989L6.07644 19.332C6.93883 20.0712 7.93469 20.6461 9.01268 21.026V21.5598C9.01268 23.2538 10.3987 24.6398 12.0927 24.6398C13.7866 24.6398 15.1726 23.2538 15.1726 21.5598V21.026C16.2506 20.6461 17.2465 20.0712 18.1089 19.332L18.5709 19.5989C19.2793 20.0096 20.1109 20.1225 20.9117 19.9069C21.7022 19.6913 22.3695 19.178 22.7802 18.4696C23.622 17.0015 23.119 15.1124 21.6508 14.2603ZM19.0226 10.4206C19.1971 11.0571 19.2895 11.7039 19.2895 12.3302C19.2895 12.9564 19.1971 13.593 19.0226 14.2398C18.8994 14.6915 19.0945 15.1637 19.5051 15.3999L20.6242 16.0467C21.117 16.3341 21.2812 16.9604 21.004 17.4532C20.8706 17.6893 20.6447 17.8639 20.3778 17.9357C20.1109 18.0076 19.8337 17.9768 19.5975 17.8331L18.4785 17.1863C18.0678 16.9501 17.5647 17.022 17.2362 17.3608C16.3225 18.2951 15.1726 18.9624 13.8996 19.2909C13.4478 19.4038 13.1296 19.8145 13.1296 20.2868V21.5804C13.1296 22.145 12.6676 22.607 12.1029 22.607C11.5383 22.607 11.0763 22.145 11.0763 21.5804V20.2868C11.0763 19.8145 10.758 19.4141 10.3063 19.2909C9.03321 18.9624 7.88335 18.2951 6.96963 17.3608C6.77456 17.1555 6.50763 17.0528 6.23043 17.0528C6.0559 17.0528 5.88137 17.0939 5.71711 17.1863L4.59805 17.8331C4.36192 17.9665 4.08472 18.0076 3.81779 17.9357C3.55086 17.8639 3.33526 17.6893 3.19152 17.4532C2.91433 16.9604 3.07859 16.3341 3.57139 16.0467L4.69045 15.3999C5.10111 15.1637 5.29618 14.6915 5.17298 14.2398C4.99844 13.6032 4.90604 12.9564 4.90604 12.3302C4.90604 11.7039 4.99844 11.0674 5.17298 10.4206C5.29618 9.96885 5.10111 9.49659 4.69045 9.26046L3.57139 8.61366C3.07859 8.3262 2.91433 7.69994 3.19152 7.20714C3.32499 6.97101 3.55086 6.79648 3.81779 6.72461C4.08472 6.65275 4.36192 6.69381 4.59805 6.82728L5.71711 7.47407C6.12777 7.7102 6.63083 7.63834 6.95936 7.29954C7.87309 6.36528 9.02294 5.69795 10.296 5.36942C10.7477 5.25649 11.066 4.84583 11.066 4.37356V3.07998C11.066 2.51531 11.528 2.05332 12.0927 2.05332C12.6573 2.05332 13.1193 2.51531 13.1193 3.07998V4.37356C13.1193 4.84583 13.4376 5.24622 13.8893 5.36942C15.1624 5.69795 16.3122 6.36528 17.2259 7.29954C17.5545 7.63834 18.0678 7.7102 18.4682 7.47407L19.5873 6.82728C19.8234 6.69381 20.1006 6.65275 20.3675 6.72461C20.6345 6.79648 20.8501 6.97101 20.9938 7.20714C21.271 7.69994 21.1067 8.3262 20.6139 8.61366L19.4949 9.26046C19.0842 9.49659 18.8891 9.96885 19.0123 10.4206H19.0226ZM13.9304 8.42887L12.2877 16.6421C12.1953 17.1349 11.7641 17.4635 11.2816 17.4635C11.22 17.4635 11.1481 17.4635 11.0763 17.4429C10.5219 17.33 10.1625 16.7961 10.2755 16.2315L11.9181 8.0182C12.0311 7.46381 12.5649 7.10448 13.1296 7.21741C13.684 7.33034 14.0433 7.8642 13.9304 8.42887ZM9.23854 11.1495L7.99629 12.3918L9.23854 13.6135C9.63894 14.0139 9.63894 14.6607 9.23854 15.0611C9.03321 15.2664 8.77655 15.3588 8.50962 15.3588C8.24269 15.3588 7.98602 15.2561 7.78069 15.0611L6.53843 13.8188C5.73764 13.018 5.73764 11.7244 6.53843 10.9339L7.78069 9.69166C8.18109 9.29126 8.82788 9.29126 9.22828 9.69166C9.62867 10.0921 9.62867 10.7388 9.22828 11.1392L9.23854 11.1495ZM17.6674 10.9442C18.4682 11.745 18.4682 13.0386 17.6674 13.8291L16.4252 15.0713C16.2198 15.2767 15.9632 15.3691 15.6962 15.3691C15.4293 15.3691 15.1726 15.2664 14.9673 15.0713C14.5669 14.6709 14.5669 14.0242 14.9673 13.6238L16.2096 12.3815L14.9673 11.1495C14.5669 10.7491 14.5669 10.1023 14.9673 9.70192C15.3677 9.30153 16.0145 9.30153 16.4149 9.70192L17.6571 10.9442H17.6674Z" fill="#F4BEFF"/>
</svg>
