<svg width="25" height="25" viewBox="0 0 25 25" fill="none" xmlns="http://www.w3.org/2000/svg">
<path d="M17 15H14V13C14 11.897 13.103 11 12 11H9C7.897 11 7 11.897 7 13V19C7 20.103 7.897 21 9 21H17C18.103 21 19 20.103 19 19V17C19 15.897 18.103 15 17 15ZM12 19H9V17H12V19ZM12 15H9V13H12V15ZM17 19H14V17H17V19ZM20.949 6.535L17.465 3.051C16.143 1.729 14.385 1 12.515 1H8C5.243 1 3 3.243 3 6V20C3 22.757 5.243 25 8 25H18C20.757 25 23 22.757 23 20V11.485C23 9.615 22.271 7.857 20.949 6.535ZM19.535 7.949C19.853 8.267 20.122 8.62 20.341 9H16C15.448 9 15 8.552 15 8V3.659C15.38 3.877 15.733 4.147 16.051 4.465L19.535 7.949ZM21 20C21 21.654 19.654 23 18 23H8C6.346 23 5 21.654 5 20V6C5 4.346 6.346 3 8 3H12.515C12.678 3 12.84 3.008 13 3.023V8C13 9.654 14.346 11 16 11H20.977C20.992 11.16 21 11.322 21 11.485V20Z" fill="#F4BEFF"/>
</svg>
