<svg width="25" height="25" viewBox="0 0 25 25" fill="none" xmlns="http://www.w3.org/2000/svg">
<path d="M13 0C10.0455 0.00210637 7.19613 1.09662 5 3.073V1C5 0.734783 4.89464 0.48043 4.70711 0.292893C4.51957 0.105357 4.26522 0 4 0C3.73478 0 3.48043 0.105357 3.29289 0.292893C3.10536 0.48043 3 0.734783 3 1V4C3 4.79565 3.31607 5.55871 3.87868 6.12132C4.44129 6.68393 5.20435 7 6 7H9C9.26522 7 9.51957 6.89464 9.70711 6.70711C9.89464 6.51957 10 6.26522 10 6C10 5.73478 9.89464 5.48043 9.70711 5.29289C9.51957 5.10536 9.26522 5 9 5H6C5.96628 4.995 5.93288 4.98799 5.9 4.979C7.52952 3.33783 9.67813 2.31308 11.9791 2.07967C14.28 1.84625 16.5906 2.41865 18.5165 3.69916C20.4424 4.97967 21.8642 6.88889 22.5392 9.10095C23.2142 11.313 23.1005 13.6908 22.2176 15.8283C21.3347 17.9659 19.7372 19.7308 17.698 20.8217C15.6587 21.9127 13.304 22.2621 11.0358 21.8102C8.76764 21.3584 6.72659 20.1333 5.26106 18.3442C3.79553 16.5551 2.99637 14.3127 3 12C3 11.7348 2.89464 11.4804 2.70711 11.2929C2.51957 11.1054 2.26522 11 2 11C1.73478 11 1.48043 11.1054 1.29289 11.2929C1.10536 11.4804 1 11.7348 1 12C1 14.3734 1.70379 16.6935 3.02236 18.6668C4.34094 20.6402 6.21508 22.1783 8.4078 23.0866C10.6005 23.9948 13.0133 24.2324 15.3411 23.7694C17.6689 23.3064 19.807 22.1635 21.4853 20.4853C23.1635 18.807 24.3064 16.6689 24.7694 14.3411C25.2324 12.0133 24.9948 9.60051 24.0866 7.4078C23.1783 5.21508 21.6402 3.34094 19.6668 2.02236C17.6935 0.703788 15.3734 0 13 0Z" fill="#F4BEFF"/>
<path d="M13 6C12.7348 6 12.4804 6.10536 12.2929 6.29289C12.1054 6.48043 12 6.73478 12 7V12C12.0001 12.2652 12.1054 12.5195 12.293 12.707L15.293 15.707C15.4816 15.8892 15.7342 15.9899 15.9964 15.9877C16.2586 15.9854 16.5094 15.8802 16.6948 15.6948C16.8802 15.5094 16.9854 15.2586 16.9877 14.9964C16.9899 14.7342 16.8892 14.4816 16.707 14.293L14 11.586V7C14 6.73478 13.8946 6.48043 13.7071 6.29289C13.5196 6.10536 13.2652 6 13 6Z" fill="#F4BEFF"/>
</svg>
