<svg width="25" height="25" viewBox="0 0 25 25" fill="none" xmlns="http://www.w3.org/2000/svg">
<path d="M15.382 7.77972L12.2852 10.841L9.18832 7.77972L7.85855 9.0942L10.9554 12.1554L7.85855 15.2167L9.18832 16.5312L12.2852 13.4699L15.382 16.5312L16.7118 15.2167L13.6149 12.1554L16.7118 9.0942L15.382 7.77972Z" fill="#F4BEFF"/>
<path d="M12.2852 1C10.0532 1 7.8713 1.65426 6.01546 2.88003C4.15963 4.10581 2.71318 5.84805 1.85904 7.88644C1.00489 9.92483 0.781406 12.1678 1.21685 14.3318C1.65229 16.4957 2.72709 18.4834 4.30535 20.0435C5.88361 21.6036 7.89443 22.6661 10.0835 23.0965C12.2726 23.527 14.5417 23.3061 16.6038 22.4617C18.6659 21.6174 20.4284 20.1876 21.6684 18.3531C22.9084 16.5186 23.5703 14.3618 23.5703 12.1554C23.5671 9.19782 22.3771 6.36224 20.2614 4.27089C18.1457 2.17953 15.2772 1.0032 12.2852 1ZM12.2852 21.4516C10.4252 21.4516 8.60694 20.9064 7.06041 19.8849C5.51388 18.8635 4.30851 17.4116 3.59672 15.7129C2.88493 14.0143 2.6987 12.1451 3.06156 10.3418C3.42443 8.53856 4.3201 6.88213 5.63532 5.58203C6.95053 4.28194 8.62622 3.39656 10.4505 3.03786C12.2747 2.67917 14.1656 2.86326 15.884 3.56687C17.6024 4.27048 19.0712 5.462 20.1045 6.99075C21.1379 8.5195 21.6895 10.3168 21.6895 12.1554C21.6867 14.6201 20.695 16.9831 18.932 18.7259C17.1689 20.4686 14.7785 21.4489 12.2852 21.4516Z" fill="#F4BEFF"/>
</svg>
