<svg width="25" height="25" viewBox="0 0 25 25" fill="none" xmlns="http://www.w3.org/2000/svg">
<path d="M9 1H4C2.35 1 1 2.35 1 4V12H12V4C12 2.35 10.65 1 9 1ZM10 10H3V4C3 3.45 3.45 3 4 3H9C9.55 3 10 3.45 10 4V10ZM22 14H17C15.35 14 14 15.35 14 17V25H25V17C25 15.35 23.65 14 22 14ZM23 23H16V17C16 16.45 16.45 16 17 16H22C22.55 16 23 16.45 23 17V23ZM14.59 7.41C13.81 6.63 13.81 5.36 14.59 4.58L17.88 1.29L19.29 2.7L17 4.99H20C22.21 4.99 24 6.78 24 8.99V11.99H22V8.99C22 7.89 21.1 6.99 20 6.99H17L19.29 9.28L17.88 10.69L14.59 7.4V7.41ZM11.42 18.58C12.2 19.36 12.2 20.63 11.42 21.41L8.13 24.7L6.72 23.29L9.01 21H6.01C3.8 21 2.01 19.21 2.01 17V14H4V17C4 18.1 4.9 19 6 19H9L6.71 16.71L8.12 15.3L11.41 18.59L11.42 18.58Z" fill="#F4BEFF"/>
</svg>
