<svg width="25" height="25" viewBox="0 0 25 25" fill="none" xmlns="http://www.w3.org/2000/svg">
<path d="M8.2194 24.1169C6.47576 24.1157 4.79137 23.484 3.47703 22.3382C2.16269 21.1925 1.30712 19.61 1.06817 17.8828C0.829226 16.1556 1.22304 14.4003 2.17695 12.9407C3.13086 11.4812 4.58048 10.4159 6.25832 9.94142C7.47786 9.59219 8.76871 9.57622 9.99651 9.89518L17.6135 2.28011C18.0179 1.87295 18.499 1.55014 19.0291 1.33039C19.5592 1.11065 20.1277 0.998353 20.7015 1.00002C21.6046 1.00078 22.4704 1.35986 23.109 1.99842C23.7476 2.63698 24.1066 3.50284 24.1074 4.4059C24.1089 4.97976 23.9966 5.54823 23.7771 6.07844C23.5575 6.60865 23.235 7.09007 22.8283 7.49489L22.181 8.14216C21.8188 8.50185 21.3295 8.70431 20.819 8.70563H19.2914V9.66883C19.2914 10.1797 19.0884 10.6697 18.7272 11.031C18.3659 11.3923 17.8759 11.5952 17.365 11.5952H16.4018V13.1229C16.4025 13.3759 16.3529 13.6266 16.2561 13.8604C16.1592 14.0942 16.0169 14.3064 15.8374 14.4848L15.2113 15.1109C15.532 16.3381 15.5164 17.6291 15.166 18.8481C14.7718 20.2371 13.9719 21.4767 12.8689 22.4083C11.7659 23.3399 10.4099 23.9211 8.97455 24.0774C8.72367 24.1034 8.47163 24.1166 8.2194 24.1169ZM8.2194 11.5952C7.23322 11.5943 6.26636 11.8686 5.42764 12.3874C4.58893 12.9061 3.91166 13.6487 3.47207 14.5314C3.03248 15.4142 2.84804 16.4022 2.93949 17.3841C3.03094 18.366 3.39466 19.3029 3.98971 20.0894C4.58476 20.8758 5.38751 21.4805 6.30759 21.8354C7.22768 22.1904 8.22858 22.2814 9.19762 22.0984C10.1667 21.9153 11.0654 21.4654 11.7926 20.7993C12.5198 20.1332 13.0466 19.2773 13.3138 18.328C13.6143 17.2844 13.5806 16.1729 13.2175 15.1494C13.1582 14.9785 13.1483 14.7944 13.1888 14.618C13.2293 14.4417 13.3187 14.2804 13.4467 14.1525L14.4754 13.1229V11.5952C14.4754 11.0843 14.6784 10.5943 15.0396 10.2331C15.4009 9.87179 15.8909 9.66883 16.4018 9.66883H17.365V8.70563C17.365 8.19472 17.568 7.70473 17.9292 7.34346C18.2905 6.98219 18.7805 6.77923 19.2914 6.77923H20.819L21.4663 6.13196C21.6936 5.90575 21.8738 5.63674 21.9964 5.34047C22.1191 5.0442 22.1818 4.72656 22.181 4.4059C22.1807 4.01376 22.0249 3.63774 21.7477 3.36037C21.4705 3.083 21.0946 2.92693 20.7025 2.92642C20.3816 2.92563 20.0638 2.98848 19.7673 3.11132C19.4709 3.23416 19.2017 3.41456 18.9755 3.64208L10.951 11.6655C10.823 11.7935 10.6614 11.8828 10.4849 11.9232C10.3084 11.9636 10.1241 11.9534 9.95316 11.8938C9.39457 11.6972 8.80678 11.5962 8.21458 11.5952H8.2194ZM5.80658 18.3376C5.80658 18.5281 5.86307 18.7144 5.96891 18.8728C6.07475 19.0312 6.22518 19.1546 6.40118 19.2275C6.57718 19.3004 6.77085 19.3195 6.95769 19.2823C7.14454 19.2452 7.31616 19.1534 7.45087 19.0187C7.58557 18.884 7.67731 18.7124 7.71447 18.5256C7.75164 18.3387 7.73257 18.145 7.65966 17.969C7.58676 17.793 7.4633 17.6426 7.30491 17.5368C7.14651 17.4309 6.96028 17.3744 6.76978 17.3744C6.51432 17.3744 6.26933 17.4759 6.08869 17.6566C5.90806 17.8372 5.80658 18.0822 5.80658 18.3376Z" fill="#F4BEFF"/>
</svg>
