<svg width="22" height="21" viewBox="0 0 22 21" fill="none" xmlns="http://www.w3.org/2000/svg">
<g clip-path="url(#clip0_111_1683)">
<path d="M7.40409 4.95505L10.0862 2.51591L10.0798 15.3807C10.0798 15.8409 10.4902 16.214 10.9964 16.214C11.5027 16.214 11.9131 15.8409 11.9131 15.3807L11.9195 2.53009L14.5888 4.95755C14.9529 5.27727 15.5332 5.26813 15.8849 4.93708C16.228 4.61416 16.228 4.10217 15.8849 3.77925L12.9416 1.10011C11.868 0.123485 10.1268 0.122978 9.05251 1.09898C9.05208 1.09937 9.0517 1.09972 9.05127 1.10011L6.10791 3.77675C5.75622 4.1078 5.76627 4.63533 6.13043 4.95505C6.48564 5.26696 7.04883 5.26696 7.40409 4.95505Z" fill="#00AA73"/>
<path d="M21.0795 13.7008C20.5733 13.7008 20.1629 14.0739 20.1629 14.5341V17.8674C20.1629 18.3276 19.7525 18.7007 19.2462 18.7007H2.7465C2.24025 18.7007 1.82986 18.3276 1.82986 17.8674V14.5341C1.82986 14.0739 1.41947 13.7008 0.91322 13.7008C0.40697 13.7008 -0.00341797 14.0739 -0.00341797 14.5341V17.8674C-0.00341797 19.2481 1.22779 20.3673 2.74654 20.3673H19.2463C20.765 20.3673 21.9962 19.2481 21.9962 17.8674V14.5341C21.9962 14.0739 21.5858 13.7008 21.0795 13.7008Z" fill="#00AA73"/>
</g>
<defs>
<clipPath id="clip0_111_1683">
<rect width="22" height="20" fill="white" transform="translate(-0.00439453 0.36731)"/>
</clipPath>
</defs>
</svg>
