<svg width="22" height="19" viewBox="0 0 22 19" fill="none" xmlns="http://www.w3.org/2000/svg">
<path d="M17.5634 0H11.4974C9.38421 0 7.66496 1.71925 7.66496 3.83248V14.5634C7.66496 16.6767 9.38421 18.3959 11.4974 18.3959H17.5634C19.6767 18.3959 21.3959 16.6767 21.3959 14.5634V3.83248C21.3959 1.71925 19.6767 0 17.5634 0ZM19.8629 14.5634C19.8629 15.8312 18.8312 16.8629 17.5634 16.8629H11.4974C10.2297 16.8629 9.19795 15.8312 9.19795 14.5634V3.83248C9.19795 2.5647 10.2297 1.53299 11.4974 1.53299H17.5634C18.8312 1.53299 19.8629 2.5647 19.8629 3.83248V14.5634ZM5.36547 3.06598V16.0964C5.36547 16.5195 5.02208 16.8629 4.59898 16.8629C4.17587 16.8629 3.83248 16.5195 3.83248 16.0964V3.06598C3.83248 2.64288 4.17587 2.29949 4.59898 2.29949C5.02208 2.29949 5.36547 2.64288 5.36547 3.06598ZM1.53299 5.36547V13.7969C1.53299 14.22 1.1896 14.5634 0.766496 14.5634C0.34339 14.5634 0 14.22 0 13.7969V5.36547C0 4.94237 0.34339 4.59898 0.766496 4.59898C1.1896 4.59898 1.53299 4.94237 1.53299 5.36547Z" fill="#691C78"/>
</svg>
