<svg width="26" height="26" viewBox="0 0 26 26" fill="none" xmlns="http://www.w3.org/2000/svg">
<path d="M4.96487 14.0155H7.9788V16.0248H4.96487V14.0155ZM9.98809 16.0248H13.002V14.0155H9.98809V16.0248ZM4.96487 20.0434H7.9788V18.0341H4.96487V20.0434ZM9.98809 20.0434H13.002V18.0341H9.98809V20.0434ZM4.96487 7.98768H7.9788V5.97839H4.96487V7.98768ZM9.98809 7.98768H13.002V5.97839H9.98809V7.98768ZM4.96487 12.0063H7.9788V9.99697H4.96487V12.0063ZM9.98809 12.0063H13.002V9.99697H9.98809V12.0063ZM25.0578 8.99232V25.0666H0.946289V3.9691C0.946289 3.16976 1.26383 2.40315 1.82905 1.83793C2.39427 1.27271 3.16088 0.95517 3.96022 0.95517L14.0067 0.95517C14.806 0.95517 15.5726 1.27271 16.1378 1.83793C16.7031 2.40315 17.0206 3.16976 17.0206 3.9691V5.97839H22.0438C22.8432 5.97839 23.6098 6.29593 24.175 6.86115C24.7402 7.42637 25.0578 8.19298 25.0578 8.99232ZM15.0113 3.9691C15.0113 3.70265 14.9055 3.44712 14.7171 3.25871C14.5286 3.0703 14.2731 2.96446 14.0067 2.96446H3.96022C3.69377 2.96446 3.43824 3.0703 3.24983 3.25871C3.06142 3.44712 2.95558 3.70265 2.95558 3.9691V23.0573H15.0113V3.9691ZM23.0485 8.99232C23.0485 8.72588 22.9426 8.47034 22.7542 8.28193C22.5658 8.09353 22.3103 7.98768 22.0438 7.98768H17.0206V23.0573H23.0485V8.99232ZM19.0299 16.0248H21.0392V14.0155H19.0299V16.0248ZM19.0299 20.0434H21.0392V18.0341H19.0299V20.0434ZM19.0299 12.0063H21.0392V9.99697H19.0299V12.0063Z" fill="#EDDFF0"/>
</svg>
