<svg width="20" height="21" viewBox="0 0 20 21" fill="none" xmlns="http://www.w3.org/2000/svg">
<path d="M12.7875 0.643738H3.47537C2.06107 0.643738 0.914551 1.79026 0.914551 3.20456V14.3791C0.914551 15.7934 2.06107 16.9399 3.47537 16.9399H12.7875C14.2018 16.9399 15.3483 15.7934 15.3483 14.3791V3.20456C15.3483 1.79026 14.2018 0.643738 12.7875 0.643738Z" fill="#691C78"/>
<path d="M16.5123 20.6647H7.20021C6.52119 20.6642 5.87012 20.3943 5.38998 19.9141C4.90984 19.434 4.63988 18.7829 4.63938 18.1039V6.92939C4.63988 6.25037 4.90984 5.5993 5.38998 5.11916C5.87012 4.63902 6.52119 4.36906 7.20021 4.36857H16.5123C17.1913 4.36906 17.8424 4.63902 18.3225 5.11916C18.8027 5.5993 19.0726 6.25037 19.0731 6.92939V18.1039C19.0726 18.7829 18.8027 19.434 18.3225 19.9141C17.8424 20.3943 17.1913 20.6642 16.5123 20.6647ZM7.20021 5.76538C6.89164 5.76588 6.59586 5.88867 6.37767 6.10686C6.15948 6.32505 6.03669 6.62083 6.0362 6.92939V18.1039C6.03669 18.4125 6.15948 18.7082 6.37767 18.9264C6.59586 19.1446 6.89164 19.2674 7.20021 19.2679H16.5123C16.8209 19.2674 17.1166 19.1446 17.3348 18.9264C17.553 18.7082 17.6758 18.4125 17.6763 18.1039V6.92939C17.6758 6.62083 17.553 6.32505 17.3348 6.10686C17.1166 5.88867 16.8209 5.76588 16.5123 5.76538H7.20021Z" fill="#691C78"/>
</svg>
