<svg width="23" height="24" viewBox="0 0 23 24" fill="none" xmlns="http://www.w3.org/2000/svg">
<path d="M9.27845 19.5197C6.98327 19.5197 5.11516 17.6516 5.11516 15.3564V5.31582H3.40095C1.91489 5.31582 0.707031 6.5235 0.707031 8.00956V21.2339C0.707031 22.72 1.91489 23.9279 3.40095 23.9279H15.6456C17.1317 23.9279 18.3395 22.72 18.3395 21.2339V19.5197H9.27845Z" fill="#565157"/>
<path d="M22.2578 3.11176C22.2578 1.62373 21.0519 0.417847 19.5641 0.417847H9.27845C7.79042 0.417847 6.58453 1.62373 6.58453 3.11176V15.3564C6.58453 16.8445 7.79042 18.0504 9.27845 18.0504H19.5641C21.0519 18.0504 22.2578 16.8445 22.2578 15.3564V3.11176Z" fill="#565157"/>
</svg>
