<svg width="22" height="22" viewBox="0 0 22 22" fill="none" xmlns="http://www.w3.org/2000/svg">
<path d="M10.8813 0.195618C4.95227 0.195618 0.128906 5.01898 0.128906 10.9481C0.128906 16.8771 4.95227 21.7005 10.8813 21.7005C16.8104 21.7005 21.6338 16.8771 21.6338 10.9481C21.6338 5.01898 16.8104 0.195618 10.8813 0.195618ZM10.8813 19.9084C5.9406 19.9084 1.92098 15.8888 1.92098 10.9481C1.92098 9.60938 2.21667 8.3388 2.74533 7.19635L4.60909 9.15599H7.2972L8.19324 10.052V11.8441L9.98531 13.6362V17.2203H11.7774L14.4655 11.3961L10.8813 9.15599H8.64126L7.2972 7.81193L8.64126 6.46788L10.4333 7.36391L11.3294 6.46788L9.98531 4.22778C9.98531 4.22778 10.6466 3.19913 11.4333 2.00561C14.3651 2.18482 16.9215 3.77977 18.4233 6.11484L16.2576 7.36391L17.1536 10.9481L19.7485 12.2366C19.1222 16.5689 15.3839 19.9084 10.8813 19.9084Z" fill="#EDDFF0"/>
</svg>
