<svg width="41" height="49" viewBox="0 0 41 49" fill="none" xmlns="http://www.w3.org/2000/svg">
<path d="M14.1409 35.6408C13.5897 37.1824 12.1001 38.2906 10.3508 38.2906C8.18225 38.2906 6.42303 36.5314 6.42303 34.3628L6.40705 30.2373C6.40705 28.0687 8.16628 26.3095 10.3349 26.3095C12.0901 26.3095 13.5857 27.4258 14.1309 28.9773C14.3545 29.6143 13.8713 30.2812 13.1963 30.2912H13.1884C12.769 30.2972 12.3796 30.0456 12.2399 29.6482C11.9663 28.8595 11.2155 28.3064 10.3329 28.3064C9.26854 28.3064 8.40191 29.173 8.40191 30.2373L8.41788 34.3568C8.41788 35.4291 9.28451 36.2938 10.3488 36.2938C11.2334 36.2938 11.9882 35.7366 12.2598 34.9639C12.3976 34.5745 12.779 34.3269 13.1904 34.3269C13.8713 34.3269 14.3685 34.9998 14.1389 35.6408H14.1409ZM21.9825 31.4075C21.0579 31.062 19.3327 30.3292 19.3327 30.3292C19.0471 30.1375 18.9133 29.818 18.9573 29.4546C18.9892 29.2389 19.141 28.7177 19.8738 28.4941C21.3874 28.0268 22.7313 29.153 22.7453 29.163C23.1686 29.5264 23.8076 29.4705 24.163 29.0412L24.201 28.9953C24.5504 28.5759 24.4965 27.9529 24.0812 27.5975L24.0492 27.5695C24.0233 27.5496 21.8507 25.7105 19.2867 26.5092C18.0147 26.8946 17.1142 27.909 16.9364 29.155C16.7687 30.3591 17.3059 31.4594 18.4061 32.1703C18.4121 32.1703 19.778 32.7873 21.2716 33.3484C21.641 33.4862 22.8411 34.0054 22.6814 34.9219C22.5676 35.5509 21.8627 36.2159 20.7784 36.2159C19.752 36.2159 18.7656 35.7926 18.1365 35.0877C17.7591 34.6663 17.1122 34.6344 16.6948 35.0178L16.6749 35.0377C16.2675 35.4132 16.2375 36.0442 16.607 36.4555L16.6269 36.4795C17.6533 37.6277 19.1669 38.2886 20.7784 38.2886C22.7393 38.2886 24.3847 37.0266 24.6902 35.2893C24.9198 33.9894 24.3268 32.2861 21.9825 31.4055V31.4075ZM33.1509 26.3115C32.6736 26.3115 32.2623 26.647 32.1664 27.1122L30.5749 34.8101L28.7418 27.0843C28.634 26.631 28.2286 26.3115 27.7634 26.3115C27.1084 26.3115 26.5293 26.9265 26.6911 27.5615L29.0953 37.1065C29.271 37.8034 29.898 38.2906 30.6149 38.2906C31.3577 38.2906 31.9987 37.7694 32.1484 37.0426L34.1353 27.5196C34.2651 26.8946 33.7899 26.3095 33.1509 26.3095V26.3115ZM40.3535 39.291C40.3535 44.2452 36.3219 48.2769 31.3677 48.2769H9.40233C4.44814 48.2769 0.416504 44.2452 0.416504 39.291V9.33629C0.416504 4.3821 4.44814 0.350464 9.40233 0.350464H20.415C23.8815 0.350464 27.1423 1.70233 29.5945 4.15247L36.5515 11.1095C39.0036 13.5616 40.3535 16.8205 40.3535 20.289V39.291ZM24.3787 13.332C24.3787 14.9834 25.7226 16.3273 27.374 16.3273H37.6218C37.0767 14.9175 36.238 13.6255 35.1377 12.5253L28.1807 5.56823C27.0804 4.46797 25.7865 3.62929 24.3787 3.08415V13.332ZM38.3566 20.291C38.3566 19.6241 38.2967 18.9671 38.1809 18.3241H27.374C24.6203 18.3241 22.3818 16.0856 22.3818 13.332V2.52304C21.7389 2.40722 21.0819 2.34731 20.415 2.34731H9.40233C5.54841 2.34731 2.41335 5.48237 2.41335 9.33629V39.289C2.41335 43.143 5.54841 46.278 9.40233 46.278H31.3677C35.2216 46.278 38.3566 43.143 38.3566 39.289V20.289V20.291Z" fill="#C7A6CF"/>
</svg>
