<svg width="25" height="25" viewBox="0 0 25 25" fill="none" xmlns="http://www.w3.org/2000/svg">
<path d="M20 1H6C4.6744 1.00165 3.40356 1.55092 2.46622 2.52731C1.52888 3.50371 1.00159 4.82751 1 6.20833L1 18.7083C1.00159 20.0892 1.52888 21.413 2.46622 22.3894C3.40356 23.3657 4.6744 23.915 6 23.9167H20C21.3256 23.915 22.5964 23.3657 23.5338 22.3894C24.4711 21.413 24.9984 20.0892 25 18.7083V6.20833C24.9984 4.82751 24.4711 3.50371 23.5338 2.52731C22.5964 1.55092 21.3256 1.00165 20 1ZM6 3.08333H20C20.7956 3.08333 21.5587 3.41257 22.1213 3.99862C22.6839 4.58468 23 5.37953 23 6.20833V7.25H3V6.20833C3 5.37953 3.31607 4.58468 3.87868 3.99862C4.44129 3.41257 5.20435 3.08333 6 3.08333ZM20 21.8333H6C5.20435 21.8333 4.44129 21.5041 3.87868 20.918C3.31607 20.332 3 19.5371 3 18.7083V9.33333H23V18.7083C23 19.5371 22.6839 20.332 22.1213 20.918C21.5587 21.5041 20.7956 21.8333 20 21.8333ZM20 13.5C20 13.7763 19.8946 14.0412 19.7071 14.2366C19.5196 14.4319 19.2652 14.5417 19 14.5417H7C6.73478 14.5417 6.48043 14.4319 6.29289 14.2366C6.10536 14.0412 6 13.7763 6 13.5C6 13.2237 6.10536 12.9588 6.29289 12.7634C6.48043 12.5681 6.73478 12.4583 7 12.4583H19C19.2652 12.4583 19.5196 12.5681 19.7071 12.7634C19.8946 12.9588 20 13.2237 20 13.5ZM16 17.6667C16 17.9429 15.8946 18.2079 15.7071 18.4032C15.5196 18.5986 15.2652 18.7083 15 18.7083H7C6.73478 18.7083 6.48043 18.5986 6.29289 18.4032C6.10536 18.2079 6 17.9429 6 17.6667C6 17.3904 6.10536 17.1254 6.29289 16.9301C6.48043 16.7347 6.73478 16.625 7 16.625H15C15.2652 16.625 15.5196 16.7347 15.7071 16.9301C15.8946 17.1254 16 17.3904 16 17.6667ZM4 5.16667C4 4.96064 4.05865 4.75925 4.16853 4.58795C4.27841 4.41665 4.43459 4.28313 4.61732 4.20429C4.80004 4.12545 5.00111 4.10482 5.19509 4.14502C5.38907 4.18521 5.56725 4.28442 5.70711 4.4301C5.84696 4.57578 5.9422 4.76138 5.98079 4.96345C6.01937 5.16551 5.99957 5.37496 5.92388 5.56529C5.84819 5.75563 5.72002 5.91832 5.55557 6.03278C5.39112 6.14724 5.19778 6.20833 5 6.20833C4.73478 6.20833 4.48043 6.09859 4.29289 5.90324C4.10536 5.70789 4 5.44293 4 5.16667ZM7 5.16667C7 4.96064 7.05865 4.75925 7.16853 4.58795C7.27841 4.41665 7.43459 4.28313 7.61732 4.20429C7.80004 4.12545 8.00111 4.10482 8.19509 4.14502C8.38907 4.18521 8.56725 4.28442 8.70711 4.4301C8.84696 4.57578 8.9422 4.76138 8.98079 4.96345C9.01937 5.16551 8.99957 5.37496 8.92388 5.56529C8.84819 5.75563 8.72002 5.91832 8.55557 6.03278C8.39112 6.14724 8.19778 6.20833 8 6.20833C7.73478 6.20833 7.48043 6.09859 7.29289 5.90324C7.10536 5.70789 7 5.44293 7 5.16667ZM10 5.16667C10 4.96064 10.0586 4.75925 10.1685 4.58795C10.2784 4.41665 10.4346 4.28313 10.6173 4.20429C10.8 4.12545 11.0011 4.10482 11.1951 4.14502C11.3891 4.18521 11.5673 4.28442 11.7071 4.4301C11.847 4.57578 11.9422 4.76138 11.9808 4.96345C12.0194 5.16551 11.9996 5.37496 11.9239 5.56529C11.8482 5.75563 11.72 5.91832 11.5556 6.03278C11.3911 6.14724 11.1978 6.20833 11 6.20833C10.7348 6.20833 10.4804 6.09859 10.2929 5.90324C10.1054 5.70789 10 5.44293 10 5.16667Z" fill="white"/>
</svg>
