<svg width="15" height="17" viewBox="0 0 15 17" fill="none" xmlns="http://www.w3.org/2000/svg">
<path d="M14.6365 3.32528C14.6365 2.77921 14.1939 2.33652 13.6478 2.33652H11.1587C10.7422 1.15486 9.62732 0.363026 8.37441 0.359009H6.3969C5.14399 0.363026 4.02907 1.15486 3.61256 2.33652H1.12352C0.57745 2.33652 0.134766 2.77921 0.134766 3.32528C0.134766 3.87135 0.57745 4.31403 1.12352 4.31403H1.45312V12.5537C1.45312 14.5559 3.07628 16.1791 5.07855 16.1791H9.69273C11.695 16.1791 13.3182 14.5559 13.3182 12.5537V4.31403H13.6478C14.1939 4.31403 14.6365 3.87135 14.6365 3.32528ZM11.3407 12.5537C11.3407 13.4638 10.6029 14.2016 9.69276 14.2016H5.07855C4.16843 14.2016 3.43063 13.4638 3.43063 12.5537V4.31403H11.3407V12.5537Z" fill="#FF6F6F"/>
<path d="M5.73774 12.2241C6.28381 12.2241 6.72649 11.7814 6.72649 11.2353V7.2803C6.72649 6.73423 6.28381 6.29155 5.73774 6.29155C5.19167 6.29155 4.74898 6.73423 4.74898 7.2803V11.2353C4.74898 11.7814 5.19167 12.2241 5.73774 12.2241Z" fill="#FF6F6F"/>
<path d="M9.03357 12.2241C9.57964 12.2241 10.0223 11.7814 10.0223 11.2353V7.2803C10.0223 6.73423 9.57964 6.29155 9.03357 6.29155C8.4875 6.29155 8.04482 6.73423 8.04482 7.2803V11.2353C8.04482 11.7814 8.4875 12.2241 9.03357 12.2241Z" fill="#FF6F6F"/>
</svg>
