<svg width="14" height="14" viewBox="0 0 14 14" fill="none" xmlns="http://www.w3.org/2000/svg">
<path d="M13.7708 13.1312C13.7708 13.5945 13.3967 13.9685 12.9334 13.9685H1.2104C0.747066 13.9685 0.373047 13.5945 0.373047 13.1312C0.373047 12.6678 0.747066 12.2938 1.2104 12.2938H12.9334C13.3967 12.2938 13.7708 12.6678 13.7708 13.1312ZM2.04218 7.12454C1.50627 6.58863 1.34438 5.78477 1.63466 5.08139C1.92495 4.37801 2.606 3.92026 3.3652 3.92026H4.28071V2.52466C4.28071 1.44726 5.15714 0.570831 6.23454 0.570831H7.90926C8.98665 0.570831 9.86309 1.44726 9.86309 2.52466V3.92026H10.7786C11.5434 3.92026 12.2189 4.38359 12.5091 5.08139C12.7994 5.78477 12.6375 6.58863 12.1016 7.12454L8.76894 10.4684C8.30002 10.9373 7.68596 11.1662 7.0719 11.1662C6.45784 11.1662 5.84378 10.9317 5.37486 10.4684L2.04218 7.12454ZM3.22564 5.94108L6.5639 9.2905C6.84302 9.56962 7.30078 9.56962 7.58548 9.2905L10.9182 5.94108C10.9851 5.87409 10.9963 5.80152 10.9628 5.71778C10.9293 5.63405 10.8679 5.58939 10.773 5.58939H9.02573C8.5624 5.58939 8.18838 5.21537 8.18838 4.75203V2.52466C8.18838 2.37394 8.05998 2.24554 7.90926 2.24554H6.23454C6.07824 2.24554 5.95542 2.36836 5.95542 2.52466V4.75761C5.95542 5.22095 5.58141 5.59497 5.11807 5.59497H3.3652C3.27588 5.59497 3.21448 5.63963 3.18098 5.72337C3.14749 5.8071 3.15865 5.87967 3.22564 5.94666V5.94108Z" fill="#565157"/>
</svg>
