<svg width="13" height="17" viewBox="0 0 13 17" fill="none" xmlns="http://www.w3.org/2000/svg">
<path d="M12.1708 16.7316L9.75746 15.0772L8.00228 16.2796L6.24579 15.0766L4.48929 16.2783L2.7295 15.0752L0.311523 16.7316V2.96163C0.311523 2.43741 0.519767 1.93467 0.890442 1.564C1.26112 1.19332 1.76386 0.985077 2.28807 0.985077L10.1943 0.985077C10.7185 0.985077 11.2212 1.19332 11.5919 1.564C11.9626 1.93467 12.1708 2.43741 12.1708 2.96163V16.7316ZM2.7295 13.4782L4.48863 14.6813L6.24579 13.4782L8.00228 14.6813L9.75812 13.4775L10.8531 14.228V2.96163C10.8531 2.78689 10.7837 2.61931 10.6602 2.49575C10.5366 2.37219 10.369 2.30278 10.1943 2.30278H2.28807C2.11334 2.30278 1.94576 2.37219 1.8222 2.49575C1.69864 2.61931 1.62922 2.78689 1.62922 2.96163V14.228L2.7295 13.4782Z" fill="#565157"/>
<path d="M9.53543 6.25588H2.94692V7.57358H9.53543V6.25588Z" fill="#565157"/>
<path d="M8.21773 8.89128H2.94692V10.209H8.21773V8.89128Z" fill="#565157"/>
</svg>
