<svg width="25" height="25" viewBox="0 0 25 25" fill="none" xmlns="http://www.w3.org/2000/svg">
<path d="M18.975 8.14152C18.643 8.07552 18.372 7.86852 18.233 7.57252C16.681 4.30152 13.09 2.47252 9.498 3.13452C6.226 3.73452 3.661 6.34652 3.114 9.63552C2.952 10.6065 2.964 11.5785 3.147 12.5255C3.207 12.8345 3.074 13.1785 2.801 13.4265C1.656 14.4675 1 15.9505 1 17.4965C1 20.5285 3.467 22.9965 6.5 22.9965H17.5C21.636 22.9965 25 19.6325 25 15.4965C25 11.9315 22.466 8.83852 18.974 8.14252L18.975 8.14152ZM17.501 20.9955H6.501C4.571 20.9955 3.001 19.4255 3.001 17.4955C3.001 16.5125 3.419 15.5675 4.147 14.9055C4.933 14.1905 5.302 13.1325 5.11 12.1425C4.972 11.4305 4.964 10.6975 5.086 9.96152C5.489 7.53952 7.451 5.54052 9.857 5.09952C10.242 5.02952 10.625 4.99552 11.002 4.99552C13.314 4.99552 15.408 6.28452 16.424 8.42952C16.838 9.30152 17.624 9.91052 18.582 10.1025C21.141 10.6135 22.999 12.8805 22.999 15.4965C22.999 18.5285 20.532 20.9965 17.499 20.9965L17.501 20.9955ZM16.8884 13.4285C17.2794 13.8195 17.2794 14.4515 16.8884 14.8425L14.1814 17.5495C13.7944 17.9365 13.2854 18.1315 12.7764 18.1335L12.7674 18.1355L12.7584 18.1335C12.2494 18.1315 11.7404 17.9365 11.3534 17.5495L8.64643 14.8425C8.25543 14.4515 8.25543 13.8195 8.64643 13.4285C9.03743 13.0375 9.66943 13.0375 10.0604 13.4285L11.7674 15.1355V10.1355C11.7674 9.58252 12.2154 9.13552 12.7674 9.13552C13.3194 9.13552 13.7674 9.58252 13.7674 10.1355V15.1355L15.4744 13.4285C15.8654 13.0375 16.4974 13.0375 16.8884 13.4285Z" fill="#F4BEFF"/>
</svg>
