<svg width="14" height="14" viewBox="0 0 14 14" fill="none" xmlns="http://www.w3.org/2000/svg">
<path d="M0.753906 13.8135L0.795395 13.2403C0.836884 12.6398 1.09291 9.58927 2.0548 8.62684C2.57262 8.12139 3.26883 7.84047 3.99243 7.84502C4.71602 7.84957 5.40865 8.13922 5.92006 8.65114C6.43148 9.16306 6.72045 9.85597 6.72429 10.5796C6.72813 11.3032 6.44653 11.9991 5.94057 12.5164C4.97868 13.4783 1.9287 13.7338 1.32656 13.7753L0.753906 13.8135ZM13.3513 1.19868C13.0327 0.894435 12.6091 0.72467 12.1686 0.72467C11.728 0.72467 11.3044 0.894435 10.9858 1.19868L5.24563 6.94107C5.79451 7.12784 6.29343 7.43762 6.70425 7.84673C7.11507 8.25585 7.42692 8.75348 7.61596 9.30158L13.3513 3.56355C13.6644 3.24967 13.8402 2.82444 13.8402 2.38111C13.8402 1.93778 13.6644 1.51255 13.3513 1.19868Z" fill="#666699"/>
</svg>
