<svg width="42" height="41" viewBox="0 0 42 41" fill="none" xmlns="http://www.w3.org/2000/svg">
<g clip-path="url(#clip0_64_40)">
<path d="M22.813 19.1114V22.4804H19.444V19.1114H22.813Z" fill="#F7C62C"/>
<path fill-rule="evenodd" clip-rule="evenodd" d="M21.1285 41.0097C4.48231 41.0097 0.914551 37.442 0.914551 20.7958C0.914551 4.14967 4.48231 0.581909 21.1285 0.581909C37.7746 0.581909 41.3424 4.14967 41.3424 20.7958C41.3424 37.442 37.7746 41.0097 21.1285 41.0097Z" fill="#E9531A"/>
<path d="M22.0873 29.4006L25.0375 12.1911H28.2581L25.3079 29.4006H22.0873ZM12.032 25.8112V22.7135H29.3153V25.8112H12.032ZM14.3676 29.4006L17.3178 12.1911H20.563L17.6128 29.4006H14.3676ZM12.9662 18.9274V15.8296H30.2249V18.9274H12.9662Z" fill="white"/>
</g>
<defs>
<clipPath id="clip0_64_40">
<rect width="40.4278" height="40.4278" fill="white" transform="translate(0.914551 0.581909)"/>
</clipPath>
</defs>
</svg>
