<svg width="25" height="25" viewBox="0 0 25 25" fill="none" xmlns="http://www.w3.org/2000/svg">
<g clip-path="url(#clip0_203_4)">
<path d="M17 3C17 1.346 15.654 0 14 0H4C2.346 0 1 1.346 1 3V20.5C1 22.43 2.57 24 4.5 24H17C18.654 24 20 22.654 20 21V18H17V3ZM18 20V21C18 21.552 17.552 22 17 22H7.662C7.879 21.545 8 21.036 8 20.5V20H18ZM6 18V20.5C6 21.327 5.327 22 4.5 22C3.673 22 3 21.327 3 20.5V3C3 2.448 3.448 2 4 2H14C14.552 2 15 2.448 15 3V18H6ZM22 0C20.346 0 19 1.346 19 3V15.414L22 18.414L25 15.414V3C25 1.346 23.654 0 22 0ZM23 14.586L22 15.586L21 14.586V3C21 2.448 21.448 2 22 2C22.552 2 23 2.448 23 3V14.586ZM9.602 4.293L11.016 5.707L8.189 8.534C7.879 8.844 7.472 8.999 7.065 8.999C6.658 8.999 6.251 8.844 5.941 8.534L4.294 6.887L5.708 5.473L7.065 6.83L9.602 4.293ZM9.602 10.293L11.016 11.707L8.189 14.534C7.879 14.844 7.472 14.999 7.065 14.999C6.658 14.999 6.251 14.844 5.941 14.534L4.294 12.887L5.708 11.473L7.065 12.83L9.602 10.293Z" fill="#F4BEFF"/>
</g>
<defs>
<clipPath id="clip0_203_4">
<rect width="24" height="24" fill="white" transform="translate(1)"/>
</clipPath>
</defs>
</svg>
