<svg width="268" height="144" viewBox="0 0 268 144" fill="none" xmlns="http://www.w3.org/2000/svg">
<circle cx="72" cy="72" r="71" stroke="#F7DEFF" stroke-width="2"/>
<path d="M66.4571 52.9984C66.4571 52.6689 66.588 52.353 66.821 52.12C67.054 51.887 67.3699 51.7561 67.6994 51.7561H84.1291C84.4586 51.7561 84.7746 51.887 85.0075 52.12C85.2405 52.353 85.3714 52.6689 85.3714 52.9984C85.3714 53.3279 85.2405 53.6438 85.0075 53.8768C84.7746 54.1098 84.4586 54.2407 84.1291 54.2407H67.6994C67.3699 54.2407 67.054 54.1098 66.821 53.8768C66.588 53.6438 66.4571 53.3279 66.4571 52.9984ZM67.6994 60.2878H93.6473C93.9768 60.2878 94.2927 60.1569 94.5257 59.9239C94.7587 59.691 94.8896 59.375 94.8896 59.0455C94.8896 58.7161 94.7587 58.4001 94.5257 58.1671C94.2927 57.9341 93.9768 57.8033 93.6473 57.8033H67.6997C67.3703 57.8033 67.0543 57.9341 66.8213 58.1671C66.5884 58.4001 66.4575 58.7161 66.4575 59.0455C66.4575 59.375 66.5884 59.691 66.8213 59.9239C67.0543 60.1569 67.3703 60.2878 67.6997 60.2878H67.6994ZM67.6997 63.8442C67.3703 63.8442 67.0543 63.9751 66.8213 64.208C66.5884 64.441 66.4575 64.757 66.4575 65.0864C66.4575 65.4159 66.5884 65.7319 66.8213 65.9649C67.0543 66.1978 67.3703 66.3287 67.6997 66.3287H93.6473C93.9768 66.3287 94.2927 66.1978 94.5257 65.9649C94.7587 65.7319 94.8896 65.4159 94.8896 65.0864C94.8896 64.757 94.7587 64.441 94.5257 64.208C94.2927 63.9751 93.9768 63.8442 93.6473 63.8442H67.6997ZM67.6997 69.8858C67.3703 69.8858 67.0543 70.0167 66.8213 70.2497C66.5884 70.4826 66.4575 70.7986 66.4575 71.1281C66.4575 71.4575 66.5884 71.7735 66.8213 72.0065C67.0543 72.2395 67.3703 72.3703 67.6997 72.3703H93.6473C93.9768 72.3703 94.2927 72.2395 94.5257 72.0065C94.7587 71.7735 94.8896 71.4575 94.8896 71.1281C94.8896 70.7986 94.7587 70.4826 94.5257 70.2497C94.2927 70.0167 93.9768 69.8858 93.6473 69.8858H67.6997ZM106.611 95.3189V106.829C106.609 108.642 105.888 110.38 104.606 111.661C103.325 112.943 101.587 113.664 99.7743 113.666H47.9298C46.1172 113.664 44.3795 112.943 43.0979 111.661C41.8163 110.38 41.0953 108.642 41.0933 106.829V77.0189L23.9968 62.2335C23.8733 62.1268 23.7721 61.9968 23.6989 61.851C23.6257 61.7051 23.5819 61.5463 23.5701 61.3835C23.5583 61.2208 23.5787 61.0573 23.6301 60.9024C23.6815 60.7475 23.763 60.6043 23.8697 60.4809L48.816 31.6358C48.9228 31.5124 49.0528 31.4112 49.1987 31.338C49.3445 31.2648 49.5034 31.2211 49.6662 31.2093C49.829 31.1975 49.9925 31.2179 50.1473 31.2694C50.3022 31.3208 50.4455 31.4023 50.5688 31.5091L59.5058 39.2404L75.6055 31.9015C75.7539 31.8338 75.9143 31.796 76.0774 31.7903C76.2405 31.7845 76.4031 31.811 76.5559 31.8681C76.7088 31.9253 76.8489 32.012 76.9682 32.1233C77.0876 32.2346 77.1838 32.3683 77.2515 32.5168L82.1318 43.224H89.8291C90.1587 43.2241 90.4747 43.355 90.7078 43.5879L100.618 53.4981C100.851 53.7312 100.982 54.0472 100.982 54.3768V72.4694C103.879 72.0687 106.822 72.7554 109.243 74.3969C111.663 76.0385 113.39 78.5186 114.09 81.3584C114.789 84.1983 114.412 87.1966 113.031 89.7748C111.65 92.3529 109.363 94.328 106.611 95.3189ZM98.4965 73.091V55.6194H92.053C91.134 55.6183 90.253 55.2528 89.6033 54.603C88.9535 53.9532 88.588 53.0722 88.5869 52.1533V45.7092H62.8505V70.6832L67.5221 75.2502C68.5809 76.2861 69.416 77.019 70.5268 77.019H93.1971C94.5575 75.2359 96.3948 73.8741 98.4965 73.091ZM91.0716 52.1533C91.0719 52.4134 91.1753 52.6627 91.3592 52.8466C91.5431 53.0304 91.7924 53.1339 92.0524 53.1342H96.7391L91.0716 47.4672V52.1533ZM75.5056 34.6783L59.8785 41.8018C59.8317 41.827 59.7832 41.8491 59.7335 41.868L43.0709 49.4635L50.9875 66.8323H56.698C58.243 66.8323 59.4258 67.5356 60.3651 68.316V44.4666C60.3651 44.1371 60.496 43.8211 60.729 43.5882C60.9619 43.3552 61.2779 43.2243 61.6074 43.2243H79.4L75.5056 34.6783ZM41.0933 73.7334V72.6672C41.0957 71.1195 41.712 69.6359 42.8069 68.5419C43.9019 67.448 45.3861 66.833 46.9338 66.832H48.2567L40.2948 49.3636C40.2272 49.2151 40.1894 49.0548 40.1837 48.8917C40.178 48.7286 40.2044 48.566 40.2616 48.4132C40.3187 48.2604 40.4054 48.1203 40.5167 48.001C40.6279 47.8816 40.7616 47.7854 40.9101 47.7177L57.0188 40.3744L49.8828 34.2013L26.5622 61.1675L41.0933 73.7334ZM104.126 95.918C102.457 96.138 100.76 95.9989 99.1498 95.5098C97.5391 95.0207 96.0516 94.1931 94.7869 93.0823C93.5222 91.9715 92.5095 90.6033 91.8167 89.0692C91.1239 87.5352 90.7669 85.8708 90.7697 84.1876C90.7684 82.5766 91.098 80.9826 91.7381 79.5043H70.5264C68.3163 79.5043 66.8529 78.0723 65.7842 77.027L60.7713 72.126C60.7486 72.1052 60.7266 72.0839 60.7055 72.0615L59.708 71.0855C58.6116 70.0177 57.8091 69.3167 56.6981 69.3167H46.9338C46.0449 69.317 45.1923 69.67 44.5633 70.2981C43.9343 70.9262 43.5801 71.7783 43.5785 72.6672V106.829C43.5798 107.983 44.0386 109.089 44.8543 109.905C45.6701 110.721 46.7761 111.179 47.9298 111.181H99.7743C100.928 111.179 102.034 110.721 102.85 109.905C103.666 109.089 104.124 107.983 104.126 106.829V95.918ZM111.948 84.1876C111.948 82.3389 111.4 80.5318 110.373 78.9947C109.346 77.4577 107.886 76.2596 106.178 75.5522C104.471 74.8447 102.591 74.6596 100.778 75.0202C98.965 75.3808 97.2996 76.271 95.9924 77.5782C94.6852 78.8853 93.795 80.5508 93.4344 82.3639C93.0737 84.177 93.2588 86.0563 93.9662 87.7642C94.6736 89.4721 95.8716 90.9319 97.4087 91.9589C98.9458 92.986 100.753 93.5341 102.601 93.5341C105.08 93.5313 107.455 92.5457 109.207 90.7935C110.96 89.0413 111.945 86.6656 111.948 84.1876ZM108.928 79.4908C108.813 79.3754 108.676 79.2839 108.525 79.2214C108.374 79.159 108.213 79.1269 108.05 79.1269C107.887 79.1269 107.725 79.159 107.574 79.2214C107.424 79.2839 107.287 79.3754 107.171 79.4908L100.413 86.2486L98.0321 83.8674C97.7991 83.6344 97.4831 83.5036 97.1537 83.5036C96.8242 83.5036 96.5082 83.6344 96.2752 83.8674C96.0422 84.1004 95.9113 84.4164 95.9113 84.7459C95.9113 85.0754 96.0422 85.3913 96.2752 85.6243L99.5351 88.884C99.6504 88.9994 99.7874 89.0909 99.9381 89.1533C100.089 89.2158 100.25 89.2479 100.414 89.2479C100.577 89.2479 100.738 89.2158 100.889 89.1533C101.04 89.0909 101.177 88.9994 101.292 88.884L108.928 81.2477C109.043 81.1323 109.135 80.9954 109.197 80.8446C109.26 80.6939 109.292 80.5324 109.292 80.3692C109.292 80.2061 109.26 80.0445 109.197 79.8938C109.135 79.7431 109.043 79.6061 108.928 79.4908ZM97.4754 103.424H50.2286C49.8992 103.424 49.5832 103.555 49.3502 103.788C49.1173 104.021 48.9864 104.337 48.9864 104.667C48.9864 104.996 49.1173 105.312 49.3502 105.545C49.5832 105.778 49.8992 105.909 50.2286 105.909H97.4754C97.8049 105.909 98.1208 105.778 98.3538 105.545C98.5868 105.312 98.7177 104.996 98.7177 104.667C98.7177 104.337 98.5868 104.021 98.3538 103.788C98.1208 103.555 97.8049 103.424 97.4754 103.424ZM50.2286 97.4236H62.3474C62.6769 97.4236 62.9928 97.2928 63.2258 97.0598C63.4588 96.8268 63.5897 96.5108 63.5897 96.1814C63.5897 95.8519 63.4588 95.5359 63.2258 95.303C62.9928 95.07 62.6769 94.9391 62.3474 94.9391H50.2286C49.8992 94.9391 49.5832 95.07 49.3502 95.303C49.1173 95.5359 48.9864 95.8519 48.9864 96.1814C48.9864 96.5108 49.1173 96.8268 49.3502 97.0598C49.5832 97.2928 49.8992 97.4236 50.2286 97.4236Z" fill="url(#paint0_linear_229_7)"/>
<circle cx="195.433" cy="72" r="71" fill="white" stroke="#F7DEFF" stroke-width="2"/>
<path d="M221.796 35.6545H173.933C172.821 35.6558 171.755 36.0981 170.968 36.8845C170.182 37.6709 169.74 38.7371 169.739 39.8493V71.8231C169.407 72.1386 169.079 72.4496 168.753 72.7561C162.261 78.8816 157.133 83.7199 158.914 102.635C158.999 103.542 159.056 106.203 159.111 108.777C159.116 109.018 159.122 109.258 159.127 109.498L157.727 109.389C157.577 109.377 157.426 109.395 157.283 109.442C157.139 109.488 157.007 109.562 156.892 109.66C156.778 109.758 156.684 109.878 156.616 110.012C156.548 110.146 156.507 110.292 156.495 110.443L156.003 116.745C155.992 116.895 156.01 117.046 156.056 117.189C156.103 117.332 156.177 117.464 156.275 117.579C156.373 117.693 156.492 117.787 156.627 117.855C156.761 117.924 156.907 117.965 157.057 117.976L176.142 119.461C176.172 119.464 176.202 119.465 176.232 119.465C176.52 119.465 176.798 119.356 177.009 119.16C177.221 118.964 177.351 118.695 177.373 118.408L177.865 112.106C177.877 111.956 177.859 111.805 177.812 111.662C177.766 111.519 177.691 111.386 177.594 111.272C177.496 111.157 177.376 111.063 177.242 110.995C177.108 110.927 176.962 110.886 176.811 110.874L175.958 110.808C176.179 110.133 176.414 109.463 176.661 108.797H221.796C222.908 108.795 223.973 108.352 224.759 107.566C225.544 106.779 225.986 105.714 225.986 104.602V39.8493C225.986 38.7377 225.544 37.6718 224.759 36.8854C223.973 36.099 222.908 35.6563 221.796 35.6545ZM175.177 117.086L158.378 115.779L158.691 111.763L175.491 113.07L175.177 117.086ZM161.424 109.677C161.417 109.362 161.41 109.045 161.403 108.727C161.345 105.993 161.289 103.41 161.196 102.42C159.576 85.2149 163.757 80.643 169.703 75.0124C169.72 76.6012 169.732 78.1928 169.739 79.7871V79.958C169.759 84.1043 169.752 88.2469 169.746 92.3036C169.742 94.4079 169.74 96.5118 169.739 98.6154C169.739 98.8607 169.817 99.0995 169.963 99.2967C170.109 99.4939 170.314 99.6391 170.549 99.7109C170.783 99.7828 171.035 99.7774 171.266 99.6957C171.497 99.6139 171.696 99.4601 171.834 99.2568L177.966 90.1758C179.166 88.4723 180.733 88.6178 181.711 89.2605C182.774 89.9588 183.405 91.3812 182.426 92.9888C181.144 94.93 179.729 97.1732 178.346 99.704C178.302 99.7675 178.265 99.8351 178.235 99.9059C176.963 102.239 175.835 104.647 174.857 107.118C174.82 107.189 174.79 107.264 174.769 107.341C174.356 108.402 173.969 109.496 173.607 110.624L161.424 109.677ZM182.971 87.3451C182.154 86.802 181.191 86.5204 180.21 86.5377C179.229 86.555 178.276 86.8703 177.479 87.4419V45.2456H218.246V99.205H181.258C182.18 97.6155 183.206 95.9704 184.352 94.2362C184.359 94.2258 184.365 94.2152 184.372 94.2046C186.078 91.4269 184.959 88.6514 182.971 87.3451ZM223.694 104.601C223.694 105.105 223.494 105.588 223.138 105.945C222.782 106.302 222.3 106.503 221.796 106.504H177.574C178.273 104.855 179.068 103.201 179.979 101.497H219.393C219.697 101.497 219.989 101.377 220.203 101.162C220.418 100.947 220.539 100.655 220.539 100.351V44.0995C220.539 43.7956 220.418 43.5041 220.203 43.2892C219.989 43.0744 219.697 42.9536 219.393 42.9536H176.333C176.029 42.9536 175.737 43.0744 175.522 43.2892C175.308 43.5041 175.187 43.7956 175.187 44.0995V90.1989L172.035 94.8665C172.036 94.0137 172.037 93.1607 172.039 92.3076C172.046 88.1852 172.052 83.9741 172.032 79.7581V39.8493C172.032 39.3449 172.233 38.8612 172.589 38.5044C172.946 38.1477 173.429 37.9469 173.934 37.9462H221.797C222.3 37.9474 222.783 38.1483 223.139 38.505C223.495 38.8616 223.694 39.3448 223.694 39.8486L223.694 104.601ZM201.435 104.003C201.435 104.307 201.315 104.598 201.1 104.813C200.885 105.028 200.593 105.149 200.29 105.149H195.436C195.132 105.149 194.841 105.028 194.626 104.813C194.411 104.598 194.29 104.307 194.29 104.003C194.29 103.699 194.411 103.408 194.626 103.193C194.841 102.978 195.132 102.857 195.436 102.857H200.29C200.593 102.857 200.885 102.978 201.1 103.193C201.315 103.408 201.435 103.699 201.435 104.003ZM210.484 68.4367C211.722 68.4353 212.91 67.9426 213.786 67.0666C214.662 66.1907 215.155 65.003 215.156 63.7642V53.8948C215.155 52.656 214.662 51.4683 213.786 50.5924C212.91 49.7164 211.722 49.2237 210.484 49.2223H185.246C184.007 49.2237 182.82 49.7165 181.944 50.5924C181.068 51.4684 180.575 52.656 180.574 53.8948V63.7642C180.575 65.003 181.068 66.1906 181.944 67.0666C182.82 67.9425 184.007 68.4353 185.246 68.4367H210.484ZM182.866 53.8948C182.867 53.2637 183.118 52.6587 183.564 52.2125C184.01 51.7662 184.615 51.5153 185.247 51.5146H210.484C211.115 51.5153 211.72 51.7662 212.166 52.2125C212.612 52.6587 212.863 53.2637 212.864 53.8948V63.7642C212.863 64.3953 212.612 65.0003 212.166 65.4465C211.72 65.8928 211.115 66.1437 210.484 66.1444H185.246C184.615 66.1437 184.01 65.8927 183.564 65.4465C183.118 65.0003 182.867 64.3952 182.866 63.7642L182.866 53.8948ZM193.717 65.1567C193.891 65.2572 194.089 65.3102 194.29 65.3102C194.491 65.3102 194.689 65.2572 194.863 65.1567L199.479 62.4893L204.101 59.826C204.275 59.7254 204.42 59.5808 204.521 59.4065C204.621 59.2322 204.674 59.0345 204.674 58.8332C204.674 58.6319 204.621 58.4341 204.521 58.2599C204.42 58.0856 204.275 57.9409 204.101 57.8404L194.863 52.5041C194.689 52.4035 194.491 52.3506 194.29 52.3506C194.089 52.3506 193.891 52.4035 193.717 52.5041C193.543 52.6047 193.398 52.7493 193.298 52.9235C193.197 53.0977 193.144 53.2953 193.144 53.4964V64.1639C193.144 64.365 193.197 64.5625 193.298 64.7366C193.398 64.9107 193.543 65.0561 193.717 65.1567ZM195.436 55.4826L201.234 58.8317L195.436 62.1772V55.4826ZM205.765 73.4071C205.765 73.711 205.644 74.0025 205.43 74.2173C205.215 74.4322 204.923 74.553 204.619 74.553H182.629C182.325 74.553 182.034 74.4322 181.819 74.2173C181.604 74.0025 181.483 73.711 181.483 73.4071C181.483 73.1032 181.604 72.8118 181.819 72.5969C182.034 72.382 182.325 72.2613 182.629 72.2613H204.619C204.922 72.2612 205.214 72.3818 205.429 72.5965C205.644 72.8112 205.765 73.1033 205.765 73.4071ZM214.243 73.4071C214.243 73.711 214.122 74.0025 213.907 74.2173C213.692 74.4322 213.401 74.553 213.097 74.553H208.609C208.305 74.553 208.014 74.4322 207.799 74.2173C207.584 74.0025 207.463 73.711 207.463 73.4071C207.463 73.1032 207.584 72.8118 207.799 72.5969C208.014 72.382 208.305 72.2613 208.609 72.2613H213.096C213.4 72.2612 213.691 72.3817 213.906 72.5964C214.121 72.8112 214.242 73.1033 214.243 73.4071Z" fill="url(#paint1_linear_229_7)"/>
<defs>
<linearGradient id="paint0_linear_229_7" x1="23.5669" y1="72.436" x2="114.433" y2="72.436" gradientUnits="userSpaceOnUse">
<stop stop-color="#91C397"/>
<stop offset="1" stop-color="#D947F8"/>
</linearGradient>
<linearGradient id="paint1_linear_229_7" x1="156" y1="77.5597" x2="225.986" y2="77.5597" gradientUnits="userSpaceOnUse">
<stop stop-color="#91C397"/>
<stop offset="1" stop-color="#D947F8"/>
</linearGradient>
</defs>
</svg>
