<svg width="538" height="373" viewBox="0 0 538 373" fill="none" xmlns="http://www.w3.org/2000/svg">
<rect x="0.265625" y="0.00317383" width="537.734" height="373" rx="11" fill="#691C78"/>
<path d="M116.974 215.821L124.696 192.061H129.663L137.385 215.821H133.804L126.693 194.14H127.584L120.555 215.821H116.974ZM120.984 210.458V207.224H133.392V210.458H120.984ZM147.424 216.316C145.763 216.316 144.327 215.903 143.117 215.078C141.918 214.253 140.989 213.131 140.329 211.712C139.68 210.282 139.355 208.676 139.355 206.894C139.355 205.101 139.685 203.501 140.345 202.093C141.005 200.674 141.94 199.557 143.15 198.743C144.371 197.918 145.818 197.506 147.49 197.506C149.173 197.506 150.586 197.918 151.73 198.743C152.885 199.557 153.754 200.674 154.337 202.093C154.931 203.512 155.228 205.112 155.228 206.894C155.228 208.676 154.931 210.277 154.337 211.696C153.743 213.115 152.869 214.242 151.714 215.078C150.559 215.903 149.129 216.316 147.424 216.316ZM147.902 213.197C149.035 213.197 149.959 212.928 150.674 212.389C151.389 211.85 151.912 211.107 152.242 210.161C152.572 209.215 152.737 208.126 152.737 206.894C152.737 205.662 152.566 204.573 152.225 203.627C151.895 202.681 151.378 201.944 150.674 201.416C149.981 200.888 149.096 200.624 148.018 200.624C146.874 200.624 145.933 200.905 145.196 201.466C144.459 202.027 143.909 202.78 143.546 203.726C143.194 204.672 143.018 205.728 143.018 206.894C143.018 208.071 143.194 209.138 143.546 210.095C143.909 211.041 144.448 211.795 145.163 212.356C145.889 212.917 146.802 213.197 147.902 213.197ZM152.737 215.821V203H152.341V192.061H155.806V215.821H152.737ZM167.501 216.316C165.84 216.316 164.404 215.903 163.194 215.078C161.995 214.253 161.066 213.131 160.406 211.712C159.757 210.282 159.432 208.676 159.432 206.894C159.432 205.101 159.762 203.501 160.422 202.093C161.082 200.674 162.017 199.557 163.227 198.743C164.448 197.918 165.895 197.506 167.567 197.506C169.25 197.506 170.663 197.918 171.807 198.743C172.962 199.557 173.831 200.674 174.414 202.093C175.008 203.512 175.305 205.112 175.305 206.894C175.305 208.676 175.008 210.277 174.414 211.696C173.82 213.115 172.946 214.242 171.791 215.078C170.636 215.903 169.206 216.316 167.501 216.316ZM167.979 213.197C169.112 213.197 170.036 212.928 170.751 212.389C171.466 211.85 171.989 211.107 172.319 210.161C172.649 209.215 172.814 208.126 172.814 206.894C172.814 205.662 172.643 204.573 172.302 203.627C171.972 202.681 171.455 201.944 170.751 201.416C170.058 200.888 169.173 200.624 168.095 200.624C166.951 200.624 166.01 200.905 165.273 201.466C164.536 202.027 163.986 202.78 163.623 203.726C163.271 204.672 163.095 205.728 163.095 206.894C163.095 208.071 163.271 209.138 163.623 210.095C163.986 211.041 164.525 211.795 165.24 212.356C165.966 212.917 166.879 213.197 167.979 213.197ZM172.814 215.821V203H172.418V192.061H175.883V215.821H172.814ZM180.829 195.08V191.731H184.278V195.08H180.829ZM180.829 215.821V198.001H184.278V215.821H180.829ZM201.74 215.821V207.059C201.74 206.366 201.679 205.657 201.558 204.931C201.448 204.194 201.228 203.512 200.898 202.885C200.579 202.258 200.123 201.752 199.529 201.367C198.946 200.982 198.181 200.789 197.235 200.789C196.619 200.789 196.036 200.894 195.486 201.103C194.936 201.301 194.452 201.625 194.034 202.076C193.627 202.527 193.303 203.121 193.061 203.858C192.83 204.595 192.714 205.492 192.714 206.548L190.569 205.739C190.569 204.122 190.872 202.698 191.477 201.466C192.082 200.223 192.951 199.255 194.084 198.562C195.217 197.869 196.586 197.522 198.192 197.522C199.424 197.522 200.458 197.72 201.294 198.116C202.13 198.512 202.807 199.035 203.324 199.684C203.852 200.322 204.253 201.02 204.528 201.779C204.803 202.538 204.99 203.281 205.089 204.007C205.188 204.733 205.238 205.371 205.238 205.921V215.821H201.74ZM189.216 215.821V198.001H192.302V203.149H192.714V215.821H189.216ZM216.878 224.236C215.921 224.236 214.992 224.087 214.09 223.79C213.199 223.493 212.385 223.053 211.648 222.47C210.911 221.898 210.3 221.189 209.816 220.342L213.001 218.725C213.386 219.484 213.936 220.039 214.651 220.391C215.366 220.743 216.119 220.919 216.911 220.919C217.89 220.919 218.726 220.743 219.419 220.391C220.112 220.05 220.635 219.533 220.987 218.84C221.35 218.147 221.526 217.289 221.515 216.266V211.283H221.927V198.001H224.98V216.299C224.98 216.772 224.963 217.223 224.93 217.652C224.897 218.081 224.837 218.51 224.749 218.939C224.496 220.138 224.012 221.128 223.297 221.909C222.593 222.69 221.691 223.273 220.591 223.658C219.502 224.043 218.264 224.236 216.878 224.236ZM216.614 216.316C214.953 216.316 213.518 215.903 212.308 215.078C211.109 214.253 210.179 213.131 209.519 211.712C208.87 210.282 208.546 208.676 208.546 206.894C208.546 205.101 208.876 203.501 209.536 202.093C210.196 200.674 211.131 199.557 212.341 198.743C213.562 197.918 215.008 197.506 216.68 197.506C218.363 197.506 219.777 197.918 220.921 198.743C222.076 199.557 222.945 200.674 223.528 202.093C224.122 203.512 224.419 205.112 224.419 206.894C224.419 208.676 224.122 210.277 223.528 211.696C222.934 213.115 222.059 214.242 220.904 215.078C219.749 215.903 218.319 216.316 216.614 216.316ZM217.093 213.197C218.226 213.197 219.15 212.928 219.865 212.389C220.58 211.85 221.102 211.107 221.432 210.161C221.762 209.215 221.927 208.126 221.927 206.894C221.927 205.662 221.757 204.573 221.416 203.627C221.086 202.681 220.569 201.944 219.865 201.416C219.172 200.888 218.286 200.624 217.208 200.624C216.064 200.624 215.124 200.905 214.387 201.466C213.65 202.027 213.1 202.78 212.737 203.726C212.385 204.672 212.209 205.728 212.209 206.894C212.209 208.071 212.385 209.138 212.737 210.095C213.1 211.041 213.639 211.795 214.354 212.356C215.08 212.917 215.993 213.197 217.093 213.197ZM241.252 216.316C239.932 216.316 238.826 216.074 237.935 215.59C237.044 215.095 236.368 214.446 235.906 213.643C235.455 212.829 235.229 211.938 235.229 210.97C235.229 210.068 235.389 209.276 235.708 208.594C236.027 207.912 236.5 207.334 237.127 206.861C237.754 206.377 238.524 205.987 239.437 205.69C240.229 205.459 241.125 205.255 242.126 205.079C243.127 204.903 244.178 204.738 245.278 204.584C246.389 204.43 247.489 204.276 248.578 204.122L247.324 204.815C247.346 203.418 247.049 202.384 246.433 201.713C245.828 201.031 244.783 200.69 243.298 200.69C242.363 200.69 241.505 200.91 240.724 201.35C239.943 201.779 239.398 202.494 239.09 203.495L235.873 202.505C236.313 200.976 237.149 199.761 238.381 198.859C239.624 197.957 241.274 197.506 243.331 197.506C244.926 197.506 246.312 197.781 247.489 198.331C248.677 198.87 249.546 199.728 250.096 200.905C250.382 201.488 250.558 202.104 250.624 202.753C250.69 203.402 250.723 204.1 250.723 204.848V215.821H247.67V211.745L248.264 212.273C247.527 213.637 246.587 214.655 245.443 215.326C244.31 215.986 242.913 216.316 241.252 216.316ZM241.862 213.494C242.841 213.494 243.683 213.324 244.387 212.983C245.091 212.631 245.657 212.185 246.086 211.646C246.515 211.107 246.796 210.546 246.928 209.963C247.115 209.435 247.219 208.841 247.241 208.181C247.274 207.521 247.291 206.993 247.291 206.597L248.413 207.01C247.324 207.175 246.334 207.323 245.443 207.455C244.552 207.587 243.743 207.719 243.017 207.851C242.302 207.972 241.664 208.121 241.103 208.297C240.63 208.462 240.207 208.66 239.833 208.891C239.47 209.122 239.178 209.402 238.958 209.732C238.749 210.062 238.645 210.464 238.645 210.937C238.645 211.399 238.76 211.828 238.991 212.224C239.222 212.609 239.574 212.917 240.047 213.148C240.52 213.379 241.125 213.494 241.862 213.494ZM274.121 215.821V207.059C274.121 206.366 274.06 205.657 273.939 204.931C273.829 204.194 273.609 203.512 273.279 202.885C272.96 202.258 272.504 201.752 271.91 201.367C271.327 200.982 270.562 200.789 269.616 200.789C269 200.789 268.417 200.894 267.867 201.103C267.317 201.301 266.833 201.625 266.415 202.076C266.008 202.527 265.684 203.121 265.442 203.858C265.211 204.595 265.095 205.492 265.095 206.548L262.95 205.739C262.95 204.122 263.253 202.698 263.858 201.466C264.463 200.223 265.332 199.255 266.465 198.562C267.598 197.869 268.967 197.522 270.573 197.522C271.805 197.522 272.839 197.72 273.675 198.116C274.511 198.512 275.188 199.035 275.705 199.684C276.233 200.322 276.634 201.02 276.909 201.779C277.184 202.538 277.371 203.281 277.47 204.007C277.569 204.733 277.619 205.371 277.619 205.921V215.821H274.121ZM261.597 215.821V198.001H264.683V203.149H265.095V215.821H261.597ZM289.594 216.316C287.823 216.316 286.267 215.931 284.925 215.161C283.594 214.38 282.554 213.296 281.806 211.91C281.069 210.513 280.701 208.896 280.701 207.059C280.701 205.112 281.064 203.424 281.79 201.994C282.527 200.564 283.55 199.458 284.859 198.677C286.168 197.896 287.691 197.506 289.429 197.506C291.244 197.506 292.79 197.929 294.066 198.776C295.342 199.612 296.293 200.806 296.92 202.357C297.558 203.908 297.811 205.75 297.679 207.884H294.231V206.63C294.209 204.562 293.813 203.033 293.043 202.043C292.284 201.053 291.123 200.558 289.561 200.558C287.834 200.558 286.536 201.103 285.667 202.192C284.798 203.281 284.364 204.854 284.364 206.911C284.364 208.869 284.798 210.387 285.667 211.465C286.536 212.532 287.79 213.065 289.429 213.065C290.507 213.065 291.437 212.823 292.218 212.339C293.01 211.844 293.626 211.14 294.066 210.227L297.448 211.3C296.755 212.895 295.705 214.132 294.297 215.012C292.889 215.881 291.321 216.316 289.594 216.316ZM283.242 207.884V205.195H295.963V207.884H283.242ZM304.532 215.821L299.087 197.984L302.502 198.001L306.231 210.227L309.993 198.001H312.963L316.725 210.227L320.454 198.001H323.853L318.408 215.821H315.636L311.478 202.918L307.304 215.821H304.532ZM342.027 216.316C340.322 216.316 338.782 216.024 337.407 215.441C336.043 214.847 334.916 214.006 334.025 212.917C333.145 211.817 332.573 210.513 332.309 209.006L335.906 208.462C336.269 209.914 337.028 211.047 338.183 211.861C339.338 212.664 340.685 213.065 342.225 213.065C343.182 213.065 344.062 212.917 344.865 212.62C345.668 212.312 346.312 211.877 346.796 211.316C347.291 210.744 347.538 210.062 347.538 209.27C347.538 208.841 347.461 208.462 347.307 208.132C347.164 207.802 346.961 207.516 346.697 207.274C346.444 207.021 346.13 206.806 345.756 206.63C345.393 206.443 344.992 206.284 344.552 206.152L338.463 204.353C337.869 204.177 337.264 203.952 336.648 203.677C336.032 203.391 335.466 203.022 334.949 202.571C334.443 202.109 334.03 201.543 333.711 200.872C333.392 200.19 333.233 199.365 333.233 198.397C333.233 196.934 333.607 195.696 334.355 194.684C335.114 193.661 336.137 192.891 337.424 192.374C338.711 191.846 340.152 191.582 341.747 191.582C343.353 191.604 344.788 191.89 346.053 192.44C347.329 192.99 348.385 193.782 349.221 194.816C350.068 195.839 350.651 197.082 350.97 198.545L347.274 199.172C347.109 198.281 346.757 197.517 346.218 196.879C345.679 196.23 345.019 195.735 344.238 195.394C343.457 195.042 342.61 194.86 341.697 194.849C340.817 194.827 340.009 194.959 339.272 195.245C338.546 195.531 337.963 195.933 337.523 196.45C337.094 196.967 336.879 197.561 336.879 198.232C336.879 198.892 337.072 199.425 337.457 199.832C337.842 200.239 338.315 200.564 338.876 200.806C339.448 201.037 340.014 201.229 340.575 201.383L344.964 202.621C345.514 202.775 346.136 202.984 346.829 203.248C347.533 203.501 348.209 203.858 348.858 204.32C349.518 204.782 350.063 205.398 350.492 206.168C350.921 206.927 351.135 207.884 351.135 209.039C351.135 210.238 350.893 211.294 350.409 212.207C349.925 213.109 349.26 213.868 348.413 214.484C347.577 215.089 346.609 215.546 345.509 215.854C344.409 216.162 343.248 216.316 342.027 216.316ZM362.555 216.316C360.784 216.316 359.228 215.931 357.886 215.161C356.555 214.38 355.515 213.296 354.767 211.91C354.03 210.513 353.662 208.896 353.662 207.059C353.662 205.112 354.025 203.424 354.751 201.994C355.488 200.564 356.511 199.458 357.82 198.677C359.129 197.896 360.652 197.506 362.39 197.506C364.205 197.506 365.751 197.929 367.027 198.776C368.303 199.612 369.254 200.806 369.881 202.357C370.519 203.908 370.772 205.75 370.64 207.884H367.192V206.63C367.17 204.562 366.774 203.033 366.004 202.043C365.245 201.053 364.084 200.558 362.522 200.558C360.795 200.558 359.497 201.103 358.628 202.192C357.759 203.281 357.325 204.854 357.325 206.911C357.325 208.869 357.759 210.387 358.628 211.465C359.497 212.532 360.751 213.065 362.39 213.065C363.468 213.065 364.398 212.823 365.179 212.339C365.971 211.844 366.587 211.14 367.027 210.227L370.409 211.3C369.716 212.895 368.666 214.132 367.258 215.012C365.85 215.881 364.282 216.316 362.555 216.316ZM356.203 207.884V205.195H368.924V207.884H356.203ZM374.672 215.821V191.566H378.121V215.821H374.672ZM383.406 215.821V191.566H386.854V215.821H383.406ZM399.713 216.316C397.942 216.316 396.385 215.931 395.043 215.161C393.712 214.38 392.673 213.296 391.925 211.91C391.188 210.513 390.819 208.896 390.819 207.059C390.819 205.112 391.182 203.424 391.908 201.994C392.645 200.564 393.668 199.458 394.977 198.677C396.286 197.896 397.81 197.506 399.548 197.506C401.363 197.506 402.908 197.929 404.184 198.776C405.46 199.612 406.412 200.806 407.039 202.357C407.677 203.908 407.93 205.75 407.798 207.884H404.349V206.63C404.327 204.562 403.931 203.033 403.161 202.043C402.402 201.053 401.242 200.558 399.68 200.558C397.953 200.558 396.655 201.103 395.786 202.192C394.917 203.281 394.482 204.854 394.482 206.911C394.482 208.869 394.917 210.387 395.786 211.465C396.655 212.532 397.909 213.065 399.548 213.065C400.626 213.065 401.555 212.823 402.336 212.339C403.128 211.844 403.744 211.14 404.184 210.227L407.567 211.3C406.874 212.895 405.823 214.132 404.415 215.012C403.007 215.881 401.44 216.316 399.713 216.316ZM393.36 207.884V205.195H406.082V207.884H393.36ZM411.499 215.821V198.001H414.568V202.324L414.139 201.763C414.359 201.191 414.645 200.668 414.997 200.195C415.349 199.711 415.756 199.315 416.218 199.007C416.669 198.677 417.17 198.424 417.72 198.248C418.281 198.061 418.853 197.951 419.436 197.918C420.019 197.874 420.58 197.902 421.119 198.001V201.235C420.536 201.081 419.887 201.037 419.172 201.103C418.468 201.169 417.819 201.394 417.225 201.779C416.664 202.142 416.218 202.582 415.888 203.099C415.569 203.616 415.338 204.194 415.195 204.832C415.052 205.459 414.981 206.124 414.981 206.828V215.821H411.499ZM203.326 260.821L211.048 237.061H216.014L223.736 260.821H220.156L213.044 239.14H213.935L206.906 260.821H203.326ZM207.335 255.458V252.224H219.743V255.458H207.335ZM234.319 261.316C232.493 261.316 230.942 260.909 229.666 260.095C228.39 259.281 227.411 258.164 226.729 256.745C226.058 255.326 225.717 253.715 225.706 251.911C225.717 250.074 226.069 248.451 226.762 247.043C227.455 245.624 228.445 244.513 229.732 243.71C231.019 242.907 232.565 242.506 234.369 242.506C236.316 242.506 237.977 242.99 239.352 243.958C240.738 244.926 241.651 246.251 242.091 247.934L238.659 248.924C238.318 247.923 237.757 247.148 236.976 246.598C236.206 246.037 235.32 245.756 234.319 245.756C233.186 245.756 232.257 246.026 231.531 246.565C230.805 247.093 230.266 247.819 229.914 248.743C229.562 249.667 229.38 250.723 229.369 251.911C229.38 253.748 229.798 255.233 230.623 256.366C231.459 257.499 232.691 258.065 234.319 258.065C235.43 258.065 236.327 257.812 237.009 257.306C237.702 256.789 238.23 256.052 238.593 255.095L242.091 255.92C241.508 257.658 240.545 258.995 239.203 259.93C237.861 260.854 236.233 261.316 234.319 261.316ZM252.592 261.316C250.766 261.316 249.215 260.909 247.939 260.095C246.663 259.281 245.684 258.164 245.002 256.745C244.331 255.326 243.99 253.715 243.979 251.911C243.99 250.074 244.342 248.451 245.035 247.043C245.728 245.624 246.718 244.513 248.005 243.71C249.292 242.907 250.837 242.506 252.641 242.506C254.588 242.506 256.249 242.99 257.624 243.958C259.01 244.926 259.923 246.251 260.363 247.934L256.931 248.924C256.59 247.923 256.029 247.148 255.248 246.598C254.478 246.037 253.593 245.756 252.592 245.756C251.459 245.756 250.529 246.026 249.803 246.565C249.077 247.093 248.538 247.819 248.186 248.743C247.834 249.667 247.653 250.723 247.642 251.911C247.653 253.748 248.071 255.233 248.896 256.366C249.732 257.499 250.964 258.065 252.592 258.065C253.703 258.065 254.599 257.812 255.281 257.306C255.974 256.789 256.502 256.052 256.865 255.095L260.363 255.92C259.78 257.658 258.818 258.995 257.476 259.93C256.134 260.854 254.506 261.316 252.592 261.316ZM270.98 261.316C269.198 261.316 267.652 260.914 266.343 260.111C265.034 259.308 264.022 258.203 263.307 256.795C262.603 255.376 262.251 253.742 262.251 251.894C262.251 250.035 262.614 248.402 263.34 246.994C264.066 245.575 265.084 244.475 266.393 243.694C267.702 242.902 269.231 242.506 270.98 242.506C272.762 242.506 274.307 242.907 275.616 243.71C276.925 244.513 277.937 245.619 278.652 247.027C279.367 248.435 279.725 250.057 279.725 251.894C279.725 253.753 279.362 255.392 278.636 256.811C277.921 258.219 276.909 259.325 275.6 260.128C274.291 260.92 272.751 261.316 270.98 261.316ZM270.98 258.065C272.685 258.065 273.955 257.493 274.791 256.349C275.638 255.194 276.062 253.709 276.062 251.894C276.062 250.035 275.633 248.55 274.775 247.439C273.928 246.317 272.663 245.756 270.98 245.756C269.825 245.756 268.873 246.02 268.125 246.548C267.377 247.065 266.822 247.786 266.459 248.71C266.096 249.623 265.914 250.684 265.914 251.894C265.914 253.764 266.343 255.26 267.201 256.382C268.059 257.504 269.319 258.065 270.98 258.065ZM290.066 261.299C288.834 261.299 287.8 261.101 286.964 260.705C286.128 260.309 285.446 259.792 284.918 259.154C284.401 258.505 284.005 257.801 283.73 257.042C283.455 256.283 283.268 255.541 283.169 254.815C283.07 254.089 283.021 253.451 283.021 252.901V243.001H286.519V251.762C286.519 252.455 286.574 253.17 286.684 253.907C286.805 254.633 287.025 255.31 287.344 255.937C287.674 256.564 288.13 257.07 288.713 257.455C289.307 257.84 290.077 258.032 291.023 258.032C291.639 258.032 292.222 257.933 292.772 257.735C293.322 257.526 293.801 257.196 294.208 256.745C294.626 256.294 294.95 255.7 295.181 254.963C295.423 254.226 295.544 253.33 295.544 252.274L297.689 253.082C297.689 254.699 297.387 256.129 296.782 257.372C296.177 258.604 295.308 259.567 294.175 260.26C293.042 260.953 291.672 261.299 290.066 261.299ZM295.957 260.821V255.673H295.544V243.001H299.026V260.821H295.957ZM316.16 260.821V252.059C316.16 251.366 316.1 250.657 315.979 249.931C315.869 249.194 315.649 248.512 315.319 247.885C315 247.258 314.543 246.752 313.949 246.367C313.366 245.982 312.602 245.789 311.656 245.789C311.04 245.789 310.457 245.894 309.907 246.103C309.357 246.301 308.873 246.625 308.455 247.076C308.048 247.527 307.723 248.121 307.481 248.858C307.25 249.595 307.135 250.492 307.135 251.548L304.99 250.739C304.99 249.122 305.292 247.698 305.897 246.466C306.502 245.223 307.371 244.255 308.504 243.562C309.637 242.869 311.007 242.522 312.613 242.522C313.845 242.522 314.879 242.72 315.715 243.116C316.551 243.512 317.227 244.035 317.744 244.684C318.272 245.322 318.674 246.02 318.949 246.779C319.224 247.538 319.411 248.281 319.51 249.007C319.609 249.733 319.658 250.371 319.658 250.921V260.821H316.16ZM303.637 260.821V243.001H306.722V248.149H307.135V260.821H303.637ZM334.153 260.821C333.031 261.041 331.931 261.134 330.853 261.101C329.775 261.068 328.812 260.859 327.965 260.474C327.118 260.089 326.48 259.484 326.051 258.659C325.666 257.922 325.457 257.174 325.424 256.415C325.402 255.645 325.391 254.776 325.391 253.808V238.051H328.856V253.643C328.856 254.358 328.862 254.98 328.873 255.508C328.895 256.036 329.01 256.481 329.219 256.844C329.615 257.526 330.242 257.917 331.1 258.016C331.969 258.104 332.987 258.065 334.153 257.9V260.821ZM321.976 245.773V243.001H334.153V245.773H321.976Z" fill="white"/>
<path d="M302.688 119.132C302.688 109.788 295.086 102.186 285.741 102.186C276.396 102.186 268.794 109.788 268.794 119.132C268.794 128.477 276.397 136.079 285.741 136.079C295.085 136.079 302.688 128.477 302.688 119.132ZM272.618 119.132C272.618 111.896 278.505 106.01 285.742 106.01C292.978 106.01 298.866 111.896 298.866 119.132C298.866 126.368 292.978 132.255 285.742 132.255C278.505 132.255 272.618 126.368 272.618 119.132Z" fill="white"/>
<path d="M283.577 140.514C283.577 139.458 282.722 138.603 281.665 138.603C280.61 138.603 279.754 139.458 279.754 140.514C279.754 147.127 276.342 153.211 270.869 156.695C270.842 156.709 270.819 156.726 270.792 156.742C270.023 157.228 269.216 157.662 268.369 158.039C267.403 158.468 266.97 159.599 267.4 160.564C267.716 161.275 268.415 161.699 269.147 161.699C269.406 161.699 269.672 161.646 269.922 161.533C270.567 161.247 271.187 160.923 271.796 160.583C275.995 162.968 279.376 166.641 281.359 171.056C281.677 171.763 282.372 172.183 283.104 172.183C283.364 172.183 283.631 172.13 283.886 172.015C284.85 171.583 285.281 170.451 284.847 169.487C282.783 164.895 279.42 160.989 275.243 158.219C280.432 153.912 283.577 147.46 283.577 140.514Z" fill="white"/>
<path d="M237.637 171.081C237.91 171.218 238.201 171.283 238.489 171.283C239.189 171.283 239.865 170.896 240.2 170.225C242.213 166.194 245.446 162.816 249.358 160.588C251.038 161.527 252.856 162.27 254.786 162.772C254.947 162.814 255.109 162.834 255.269 162.834C256.118 162.834 256.895 162.263 257.118 161.403C257.383 160.379 256.771 159.336 255.748 159.071C247.307 156.878 241.412 149.248 241.412 140.514C241.412 129.944 250.011 121.345 260.547 121.343L264.49 121.417H264.526C265.565 121.417 266.416 120.584 266.436 119.54C266.455 118.485 265.616 117.613 264.56 117.593L260.582 117.52C247.903 117.52 237.589 127.835 237.589 140.514C237.589 147.535 240.778 153.951 245.922 158.219C242.056 160.79 238.858 164.355 236.78 168.517C236.307 169.462 236.692 170.61 237.637 171.081Z" fill="white"/>
<path d="M253.971 146.587C255.263 147.602 257.735 148.792 260.66 148.792C262.679 148.792 264.915 148.224 267.126 146.637C267.985 146.02 268.183 144.827 267.566 143.969C266.952 143.112 265.755 142.914 264.898 143.53C260.501 146.684 256.498 143.706 256.324 143.572C255.494 142.927 254.3 143.078 253.65 143.902C252.997 144.733 253.142 145.933 253.971 146.587Z" fill="white"/>
<path d="M257.064 135.953C257.064 134.694 256.042 133.67 254.785 133.67C253.528 133.67 252.504 134.694 252.504 135.953C252.504 137.209 253.528 138.234 254.785 138.234C256.042 138.234 257.064 137.21 257.064 135.953Z" fill="white"/>
<path d="M264.101 135.953C264.101 137.209 265.124 138.234 266.383 138.234C267.641 138.234 268.664 137.21 268.664 135.953C268.664 134.694 267.641 133.67 266.383 133.67C265.124 133.67 264.101 134.694 264.101 135.953Z" fill="white"/>
<path d="M287.652 125.183V121.044H291.792C292.848 121.044 293.704 120.189 293.704 119.132C293.704 118.076 292.848 117.221 291.792 117.221H287.652V113.082C287.652 112.026 286.797 111.17 285.741 111.17C284.684 111.17 283.829 112.026 283.829 113.082V117.221H279.693C278.636 117.221 277.78 118.076 277.78 119.132C277.78 120.189 278.636 121.044 279.693 121.044H283.829V125.183C283.829 126.24 284.684 127.096 285.741 127.096C286.797 127.096 287.652 126.24 287.652 125.183Z" fill="white"/>
</svg>
