<svg width="13" height="14" viewBox="0 0 13 14" fill="none" xmlns="http://www.w3.org/2000/svg">
<path d="M9.71785 0.951447H2.93901C1.35902 0.951447 0.0710449 2.23942 0.0710449 3.81941V10.5982C0.0710449 12.1782 1.35902 13.4662 2.93901 13.4662H9.71785C11.2978 13.4662 12.5858 12.1782 12.5858 10.5982V3.81941C12.5858 2.23942 11.2978 0.951447 9.71785 0.951447ZM11.0215 10.5982C11.0215 11.3178 10.4374 11.9019 9.71785 11.9019H2.93901C2.21941 11.9019 1.63539 11.3178 1.63539 10.5982V3.81941C1.63539 3.09982 2.21941 2.51579 2.93901 2.51579H9.71785C10.4374 2.51579 11.0215 3.09982 11.0215 3.81941V10.5982ZM2.67829 4.34086C2.67829 3.90806 3.02766 3.55869 3.46046 3.55869H7.63205C8.06485 3.55869 8.41422 3.90806 8.41422 4.34086C8.41422 4.77367 8.06485 5.12304 7.63205 5.12304H3.46046C3.02766 5.12304 2.67829 4.77367 2.67829 4.34086ZM9.97857 7.20883C9.97857 7.64163 9.6292 7.991 9.1964 7.991H3.46046C3.02766 7.991 2.67829 7.64163 2.67829 7.20883C2.67829 6.77603 3.02766 6.42666 3.46046 6.42666H9.1964C9.6292 6.42666 9.97857 6.77603 9.97857 7.20883ZM5.28553 10.0768C5.28553 10.5096 4.93616 10.859 4.50336 10.859H3.46046C3.02766 10.859 2.67829 10.5096 2.67829 10.0768C2.67829 9.644 3.02766 9.29463 3.46046 9.29463H4.50336C4.93616 9.29463 5.28553 9.644 5.28553 10.0768Z" fill="#DEDDEB"/>
</svg>
