<svg width="14" height="14" viewBox="0 0 14 14" fill="none" xmlns="http://www.w3.org/2000/svg">
<path d="M4.53502 8.83192C4.2165 8.51394 4.2165 7.99702 4.53502 7.67905C4.85355 7.36052 5.36938 7.36052 5.6879 7.67905C6.40865 8.3998 7.66643 8.40034 8.38718 7.67905L11.099 4.96726C11.8431 4.22314 11.8431 3.01211 11.099 2.26798C10.3548 1.52386 9.14381 1.52386 8.39968 2.26798C8.08116 2.5865 7.56533 2.5865 7.24681 2.26798C6.92829 1.95 6.92829 1.43309 7.24681 1.11511C8.62634 -0.264972 10.8723 -0.264972 12.2518 1.11511C13.6319 2.49519 13.6319 4.74006 12.2518 6.12014L9.54006 8.83192C8.84974 9.52223 7.94364 9.86684 7.03754 9.86684C6.13144 9.86684 5.22479 9.52169 4.53502 8.83192ZM3.78275 13.1222C4.68885 13.1222 5.59495 12.777 6.28526 12.0873C6.60379 11.7693 6.60379 11.2524 6.28526 10.9344C5.96674 10.6159 5.45091 10.6159 5.13239 10.9344C4.38772 11.679 3.17669 11.6785 2.43311 10.9344C1.68898 10.1903 1.68898 8.97922 2.43311 8.2351L5.12967 5.53854C5.87434 4.79387 7.08537 4.79387 7.82895 5.53854C8.14747 5.85706 8.66331 5.85706 8.98183 5.53854C9.30035 5.22056 9.30035 4.70364 8.98183 4.38566C7.60175 3.00558 5.35688 3.00558 3.9768 4.38566L1.27969 7.08223C-0.100391 8.46231 -0.100391 10.7072 1.27969 12.0873C1.97 12.7776 2.87665 13.1222 3.78275 13.1222Z" fill="#DEDDEB"/>
</svg>
