<svg width="19" height="19" viewBox="0 0 19 19" fill="none" xmlns="http://www.w3.org/2000/svg">
<path d="M0.766479 3.64098H2.86357C3.02808 4.24629 3.38721 4.78065 3.88553 5.16162C4.38386 5.54259 4.99371 5.74899 5.62098 5.74899C6.24825 5.74899 6.85809 5.54259 7.35642 5.16162C7.85475 4.78065 8.21387 4.24629 8.37839 3.64098H17.629C17.8323 3.64098 18.0273 3.56022 18.171 3.41648C18.3148 3.27274 18.3955 3.07778 18.3955 2.8745C18.3955 2.67121 18.3148 2.47626 18.171 2.33251C18.0273 2.18877 17.8323 2.10802 17.629 2.10802H8.37839C8.21387 1.5027 7.85475 0.968343 7.35642 0.587375C6.85809 0.206406 6.24825 0 5.62098 0C4.99371 0 4.38386 0.206406 3.88553 0.587375C3.38721 0.968343 3.02808 1.5027 2.86357 2.10802H0.766479C0.563196 2.10802 0.368239 2.18877 0.224497 2.33251C0.0807539 2.47626 0 2.67121 0 2.8745C0 3.07778 0.0807539 3.27274 0.224497 3.41648C0.368239 3.56022 0.563196 3.64098 0.766479 3.64098ZM5.62059 1.53316C5.88589 1.53316 6.14522 1.61183 6.3658 1.75921C6.58638 1.9066 6.75831 2.11609 6.85983 2.36119C6.96135 2.60629 6.98792 2.87598 6.93616 3.13618C6.8844 3.39637 6.75665 3.63538 6.56906 3.82297C6.38147 4.01056 6.14247 4.13831 5.88228 4.19006C5.62208 4.24182 5.35238 4.21526 5.10729 4.11373C4.86219 4.01221 4.6527 3.84029 4.50531 3.6197C4.35792 3.39912 4.27925 3.13979 4.27925 2.8745C4.27966 2.51888 4.42111 2.17794 4.67257 1.92647C4.92403 1.67501 5.26497 1.53356 5.62059 1.53316Z" fill="#691C78"/>
<path d="M17.629 8.43147H15.5319C15.3677 7.82602 15.0087 7.29147 14.5104 6.91034C14.0121 6.52921 13.4023 6.32271 12.7749 6.32271C12.1476 6.32271 11.5377 6.52921 11.0394 6.91034C10.5411 7.29147 10.1821 7.82602 10.0179 8.43147H0.766479C0.563196 8.43147 0.368239 8.51223 0.224497 8.65597C0.0807539 8.79971 0 8.99467 0 9.19795C0 9.40124 0.0807539 9.59619 0.224497 9.73994C0.368239 9.88368 0.563196 9.96443 0.766479 9.96443H10.0179C10.1821 10.5699 10.5411 11.1044 11.0394 11.4856C11.5377 11.8667 12.1476 12.0732 12.7749 12.0732C13.4023 12.0732 14.0121 11.8667 14.5104 11.4856C15.0087 11.1044 15.3677 10.5699 15.5319 9.96443H17.629C17.8323 9.96443 18.0273 9.88368 18.171 9.73994C18.3148 9.59619 18.3955 9.40124 18.3955 9.19795C18.3955 8.99467 18.3148 8.79971 18.171 8.65597C18.0273 8.51223 17.8323 8.43147 17.629 8.43147ZM12.7749 10.5393C12.5096 10.5393 12.2503 10.4606 12.0297 10.3132C11.8091 10.1658 11.6372 9.95636 11.5357 9.71126C11.4342 9.46616 11.4076 9.19647 11.4593 8.93627C11.5111 8.67608 11.6389 8.43707 11.8264 8.24948C12.014 8.06189 12.253 7.93414 12.5132 7.88239C12.7734 7.83063 13.0431 7.85719 13.2882 7.95872C13.5333 8.06024 13.7428 8.23216 13.8902 8.45274C14.0376 8.67333 14.1163 8.93266 14.1163 9.19795C14.1158 9.55357 13.9744 9.89451 13.7229 10.146C13.4715 10.3974 13.1305 10.5389 12.7749 10.5393Z" fill="#691C78"/>
<path d="M17.629 14.7549H8.37839C8.21387 14.1496 7.85475 13.6153 7.35642 13.2343C6.85809 12.8533 6.24825 12.6469 5.62098 12.6469C4.99371 12.6469 4.38386 12.8533 3.88553 13.2343C3.38721 13.6153 3.02808 14.1496 2.86357 14.7549H0.766479C0.563196 14.7549 0.368239 14.8357 0.224497 14.9794C0.0807539 15.1232 0 15.3181 0 15.5214C0 15.7247 0.0807539 15.9196 0.224497 16.0634C0.368239 16.2071 0.563196 16.2879 0.766479 16.2879H2.86357C3.02808 16.8932 3.38721 17.4276 3.88553 17.8085C4.38386 18.1895 4.99371 18.3959 5.62098 18.3959C6.24825 18.3959 6.85809 18.1895 7.35642 17.8085C7.85475 17.4276 8.21387 16.8932 8.37839 16.2879H17.629C17.8323 16.2879 18.0273 16.2071 18.171 16.0634C18.3148 15.9196 18.3955 15.7247 18.3955 15.5214C18.3955 15.3181 18.3148 15.1232 18.171 14.9794C18.0273 14.8357 17.8323 14.7549 17.629 14.7549ZM5.62059 16.8627C5.3553 16.8627 5.09597 16.7841 4.87539 16.6367C4.6548 16.4893 4.48288 16.2798 4.38136 16.0347C4.27984 15.7896 4.25327 15.5199 4.30503 15.2597C4.35678 14.9995 4.48453 14.7605 4.67212 14.5729C4.85971 14.3853 5.09872 14.2576 5.35891 14.2058C5.61911 14.1541 5.8888 14.1807 6.1339 14.2822C6.379 14.3837 6.58849 14.5556 6.73588 14.7762C6.88327 14.9968 6.96193 15.2561 6.96193 15.5214C6.96133 15.877 6.81981 16.2178 6.56839 16.4692C6.31697 16.7206 5.97615 16.8621 5.62059 16.8627Z" fill="#691C78"/>
</svg>
