<svg width="25" height="25" viewBox="0 0 25 25" fill="none" xmlns="http://www.w3.org/2000/svg">
<g clip-path="url(#clip0_203_15)">
<path d="M25 13C25 19.617 19.617 25 13 25C6.383 25 1 19.617 1 13C1 6.383 6.383 1 13 1C13.553 1 14 1.447 14 2C14 2.553 13.553 3 13 3C7.486 3 3 7.486 3 13C3 18.514 7.486 23 13 23C18.514 23 23 18.514 23 13C23 12.447 23.447 12 24 12C24.553 12 25 12.447 25 13ZM23 1H19C18.447 1 18 1.447 18 2C18 2.553 18.447 3 19 3H21.586L18.293 6.293C17.902 6.684 17.902 7.316 18.293 7.707C18.488 7.902 18.744 8 19 8C19.256 8 19.512 7.902 19.707 7.707L23 4.414V7C23 7.553 23.447 8 24 8C24.553 8 25 7.553 25 7V3C25 1.897 24.103 1 23 1ZM14 7C14 6.447 13.553 6 13 6C12.447 6 12 6.447 12 7V8C10.346 8 9 9.346 9 11C9 12.359 9.974 13.51 11.315 13.733L14.355 14.239C14.729 14.301 15 14.621 15 15C15 15.552 14.552 16 14 16H11.732C11.376 16 11.044 15.809 10.865 15.499C10.589 15.02 9.978 14.856 9.499 15.135C9.021 15.411 8.857 16.023 9.135 16.501C9.669 17.426 10.665 18 11.733 18H12.001V19C12.001 19.553 12.448 20 13.001 20C13.554 20 14.001 19.553 14.001 19V18C15.655 18 17.001 16.654 17.001 15C17.001 13.641 16.027 12.49 14.686 12.267L11.646 11.761C11.272 11.699 11.001 11.379 11.001 11C11.001 10.448 11.449 10 12.001 10H14.269C14.625 10 14.957 10.191 15.136 10.501C15.411 10.979 16.022 11.143 16.502 10.865C16.98 10.589 17.144 9.977 16.866 9.499C16.332 8.574 15.336 8 14.268 8H14V7Z" fill="#F4BEFF"/>
</g>
<defs>
<clipPath id="clip0_203_15">
<rect width="24" height="24" fill="white" transform="translate(1 1)"/>
</clipPath>
</defs>
</svg>
