<svg width="27" height="28" viewBox="0 0 27 28" fill="none" xmlns="http://www.w3.org/2000/svg">
<path d="M13.6934 0.0160522C6.52494 0.0160522 0.693359 6.07193 0.693359 13.5161C0.693359 20.9602 6.52494 27.0161 13.6934 27.0161C20.8618 27.0161 26.6934 20.9602 26.6934 13.5161C26.6934 6.07193 20.8618 0.0160522 13.6934 0.0160522ZM9.36003 23.8256V21.3911C9.36003 20.7701 9.84644 20.2661 10.4434 20.2661H16.9434C17.5403 20.2661 18.0267 20.7701 18.0267 21.3911V23.8256C16.6985 24.4297 15.2339 24.7661 13.6934 24.7661C12.1529 24.7661 10.6882 24.4297 9.36003 23.8256ZM20.1934 22.5104V21.3911C20.1934 19.5303 18.7352 18.0161 16.9434 18.0161H10.4434C8.65153 18.0161 7.19336 19.5303 7.19336 21.3911V22.5104C4.56411 20.4562 2.86003 17.1892 2.86003 13.5161C2.86003 7.3128 7.71986 2.26605 13.6934 2.26605C19.6669 2.26605 24.5267 7.3128 24.5267 13.5161C24.5267 17.1881 22.8226 20.4562 20.1934 22.5104ZM13.6934 6.76605C11.3035 6.76605 9.36003 8.7843 9.36003 11.2661C9.36003 13.7478 11.3035 15.7661 13.6934 15.7661C16.0832 15.7661 18.0267 13.7478 18.0267 11.2661C18.0267 8.7843 16.0832 6.76605 13.6934 6.76605ZM13.6934 13.5161C12.4984 13.5161 11.5267 12.5069 11.5267 11.2661C11.5267 10.0252 12.4984 9.01605 13.6934 9.01605C14.8883 9.01605 15.86 10.0252 15.86 11.2661C15.86 12.5069 14.8883 13.5161 13.6934 13.5161Z" fill="#EDDFF0"/>
</svg>
