<svg width="24" height="19" viewBox="0 0 24 19" fill="none" xmlns="http://www.w3.org/2000/svg">
<path d="M23.199 7.00986C21.6719 4.52279 18.1983 0.350098 12.1017 0.350098C6.0051 0.350098 2.53147 4.52279 1.00437 7.00986C0.532287 7.77342 0.282227 8.65338 0.282227 9.55109C0.282227 10.4488 0.532287 11.3288 1.00437 12.0923C2.53147 14.5794 6.0051 18.7521 12.1017 18.7521C18.1983 18.7521 21.6719 14.5794 23.199 12.0923C23.6711 11.3288 23.9211 10.4488 23.9211 9.55109C23.9211 8.65338 23.6711 7.77342 23.199 7.00986ZM21.5203 11.0615C20.2088 13.1941 17.2403 16.7829 12.1017 16.7829C6.96311 16.7829 3.99457 13.1941 2.6831 11.0615C2.40262 10.6076 2.25406 10.0846 2.25406 9.55109C2.25406 9.01757 2.40262 8.49458 2.6831 8.04073C3.99457 5.90811 6.96311 2.31928 12.1017 2.31928C17.2403 2.31928 20.2088 5.90417 21.5203 8.04073C21.8007 8.49458 21.9493 9.01757 21.9493 9.55109C21.9493 10.0846 21.8007 10.6076 21.5203 11.0615Z" fill="#6B6B6B"/>
<path d="M12.1017 4.62814C11.128 4.62814 10.1762 4.91687 9.36664 5.45781C8.55706 5.99875 7.92608 6.76761 7.55347 7.66716C7.18086 8.56671 7.08337 9.55655 7.27333 10.5115C7.46328 11.4665 7.93214 12.3437 8.62063 13.0321C9.30912 13.7206 10.1863 14.1895 11.1413 14.3794C12.0962 14.5694 13.0861 14.4719 13.9856 14.0993C14.8852 13.7267 15.654 13.0957 16.195 12.2861C16.7359 11.4766 17.0246 10.5248 17.0246 9.55109C17.0231 8.24592 16.5039 6.99466 15.581 6.07177C14.6581 5.14887 13.4068 4.6297 12.1017 4.62814ZM12.1017 12.5049C11.5175 12.5049 10.9464 12.3316 10.4607 12.0071C9.97491 11.6825 9.59632 11.2212 9.37276 10.6814C9.14919 10.1417 9.0907 9.54781 9.20467 8.97484C9.31864 8.40186 9.59996 7.87555 10.0131 7.46246C10.4261 7.04937 10.9525 6.76805 11.5254 6.65408C12.0984 6.5401 12.6923 6.5986 13.232 6.82216C13.7718 7.04573 14.2331 7.42432 14.5577 7.91006C14.8822 8.39581 15.0555 8.96689 15.0555 9.55109C15.0555 10.3345 14.7443 11.0858 14.1903 11.6397C13.6364 12.1937 12.8851 12.5049 12.1017 12.5049Z" fill="#6B6B6B"/>
</svg>
