<svg width="27" height="27" viewBox="0 0 27 27" fill="none" xmlns="http://www.w3.org/2000/svg">
<path d="M8.76002 26.0686C6.86459 26.0674 5.03355 25.3807 3.60479 24.1351C2.17603 22.8896 1.24596 21.1694 0.986215 19.2918C0.726468 17.4143 1.15457 15.5061 2.19152 13.9195C3.22848 12.3329 4.8043 11.1748 6.62822 10.6591C7.95392 10.2794 9.35716 10.2621 10.6918 10.6088L18.972 2.33077C19.4115 1.88816 19.9346 1.53724 20.5109 1.29837C21.0871 1.05949 21.705 0.937419 22.3288 0.939229C23.3105 0.940061 24.2518 1.3304 24.9459 2.02455C25.6401 2.71871 26.0304 3.65994 26.0312 4.64162C26.0329 5.26545 25.9108 5.88341 25.6721 6.45978C25.4335 7.03614 25.0829 7.55948 24.6407 7.99954L23.9371 8.70316C23.5434 9.09417 23.0115 9.31425 22.4566 9.31569H20.7959V10.3627C20.7959 10.9181 20.5753 11.4508 20.1826 11.8435C19.7899 12.2362 19.2572 12.4569 18.7018 12.4569H17.6548V14.1175C17.6555 14.3926 17.6017 14.6651 17.4963 14.9192C17.391 15.1734 17.2363 15.4041 17.0412 15.598L16.3606 16.2786C16.7092 17.6127 16.6922 19.016 16.3114 20.3412C15.8829 21.8511 15.0134 23.1986 13.8143 24.2113C12.6153 25.2241 11.1412 25.8558 9.58092 26.0257C9.3082 26.054 9.03421 26.0683 8.76002 26.0686ZM8.76002 12.4569C7.68799 12.4558 6.63696 12.754 5.72522 13.3179C4.81349 13.8818 4.07725 14.6891 3.5994 15.6487C3.12154 16.6083 2.92103 17.6823 3.02045 18.7497C3.11986 19.8171 3.51525 20.8356 4.1621 21.6905C4.80895 22.5454 5.68159 23.2027 6.68178 23.5886C7.68197 23.9744 8.77 24.0734 9.8234 23.8744C10.8768 23.6754 11.8537 23.1863 12.6443 22.4622C13.4348 21.7381 14.0075 20.8077 14.2979 19.7758C14.6246 18.6413 14.588 17.4331 14.1932 16.3205C14.1288 16.1347 14.118 15.9345 14.1621 15.7428C14.2061 15.5512 14.3033 15.3758 14.4424 15.2368L15.5607 14.1175V12.4569C15.5607 11.9015 15.7813 11.3688 16.174 10.9761C16.5667 10.5834 17.0994 10.3627 17.6548 10.3627H18.7018V9.31569C18.7018 8.76029 18.9225 8.22765 19.3152 7.83492C19.7079 7.4422 20.2406 7.22157 20.7959 7.22157H22.4566L23.1602 6.51795C23.4073 6.27205 23.6031 5.97962 23.7365 5.65756C23.8698 5.3355 23.938 4.9902 23.9371 4.64162C23.9368 4.21535 23.7675 3.80659 23.4661 3.50507C23.1648 3.20355 22.7562 3.0339 22.3299 3.03334C21.9811 3.03249 21.6355 3.1008 21.3133 3.23434C20.9911 3.36787 20.6985 3.56398 20.4525 3.81131L11.7295 12.5333C11.5903 12.6724 11.4147 12.7695 11.2228 12.8134C11.0309 12.8573 10.8306 12.8462 10.6447 12.7814C10.0375 12.5677 9.39855 12.4579 8.75479 12.4569H8.76002ZM6.13715 19.7863C6.13715 19.9933 6.19856 20.1958 6.31361 20.368C6.42866 20.5402 6.59219 20.6744 6.78351 20.7536C6.97484 20.8329 7.18537 20.8536 7.38847 20.8132C7.59158 20.7728 7.77815 20.6731 7.92458 20.5266C8.07102 20.3802 8.17074 20.1936 8.21114 19.9905C8.25154 19.7874 8.23081 19.5769 8.15156 19.3856C8.07231 19.1942 7.93811 19.0307 7.76592 18.9157C7.59373 18.8006 7.39129 18.7392 7.1842 18.7392C6.90651 18.7392 6.64018 18.8495 6.44382 19.0459C6.24746 19.2422 6.13715 19.5086 6.13715 19.7863Z" fill="#EDDFF0"/>
</svg>
