<svg width="18" height="26" viewBox="0 0 18 26" fill="none" xmlns="http://www.w3.org/2000/svg">
<path d="M12.1875 25.4744H5.95845C3.0962 25.4744 0.767578 23.1458 0.767578 20.2835V5.74908C0.767578 2.88684 3.0962 0.558212 5.95845 0.558212H12.1875C15.0497 0.558212 17.3784 2.88684 17.3784 5.74908V20.2835C17.3784 23.1458 15.0497 25.4744 12.1875 25.4744ZM5.95845 2.63456C4.24131 2.63456 2.84393 4.03194 2.84393 5.74908V20.2835C2.84393 22.0007 4.24131 23.398 5.95845 23.398H12.1875C13.9046 23.398 15.302 22.0007 15.302 20.2835V5.74908C15.302 4.03194 13.9046 2.63456 12.1875 2.63456H5.95845ZM11.1493 20.2835C11.1493 19.7104 10.6842 19.2453 10.1111 19.2453H8.0348C7.46173 19.2453 6.99662 19.7104 6.99662 20.2835C6.99662 20.8566 7.46173 21.3217 8.0348 21.3217H10.1111C10.6842 21.3217 11.1493 20.8566 11.1493 20.2835Z" fill="#EDDFF0"/>
</svg>
