<svg width="25" height="25" viewBox="0 0 25 25" fill="none" xmlns="http://www.w3.org/2000/svg">
<path fill-rule="evenodd" clip-rule="evenodd" d="M16.4313 2.87209V3.94186C16.4313 4.97397 15.7083 5.81395 14.8199 5.81395H9.29483C8.4064 5.81395 7.68336 4.97397 7.68336 3.94186V2.87209C7.68336 1.83998 8.4064 1 9.29483 1H14.8199C15.7083 1 16.4313 1.83998 16.4313 2.87209ZM20.1147 6.0814V21.0581C20.1147 22.6805 18.9789 24 17.5824 24H6.53231C5.13576 24 4 22.6805 4 21.0581V6.0814C4 4.55056 5.01486 3.30417 6.3021 3.1666V3.94186C6.3021 5.85888 7.64468 7.4186 9.29483 7.4186H14.8199C16.47 7.4186 17.8126 5.85888 17.8126 3.94186V3.1666C19.0998 3.30417 20.1147 4.55066 20.1147 6.0814ZM6.54395 12.133C6.54395 10.9782 7.48007 10.0421 8.63483 10.0421H15.4289C16.5837 10.0421 17.5198 10.9782 17.5198 12.133C17.5198 13.2877 16.5837 14.2239 15.4289 14.2239H8.63483C7.48006 14.2239 6.54395 13.2877 6.54395 12.133ZM8.63483 15.8692C7.48007 15.8692 6.54395 16.8053 6.54395 17.9601C6.54395 19.1149 7.48006 20.051 8.63483 20.051H15.4289C16.5837 20.051 17.5198 19.1149 17.5198 17.9601C17.5198 16.8053 16.5837 15.8692 15.4289 15.8692H8.63483Z" fill="white"/>
</svg>
