<svg width="34" height="34" viewBox="0 0 34 34" fill="none" xmlns="http://www.w3.org/2000/svg">
<path d="M16.8535 0.661072C7.72495 0.661072 0.299316 8.08741 0.299316 17.2152C0.299316 26.343 7.72495 33.7693 16.8535 33.7693C25.982 33.7693 33.4076 26.343 33.4076 17.2152C33.4076 8.08741 25.982 0.661072 16.8535 0.661072ZM23.4344 17.7952L13.7779 24.003C13.6647 24.0764 13.534 24.1128 13.4047 24.1128C13.2915 24.1128 13.177 24.0845 13.0746 24.0286C12.8523 23.9073 12.7149 23.6756 12.7149 23.423V11.0074C12.7149 10.7548 12.8523 10.5231 13.0746 10.4018C13.2929 10.2819 13.5664 10.2893 13.7779 10.4274L23.4344 16.6352C23.6311 16.7618 23.751 16.9808 23.751 17.2152C23.751 17.4496 23.6311 17.6685 23.4344 17.7952Z" fill="white"/>
</svg>
