<svg width="15" height="15" viewBox="0 0 15 15" fill="none" xmlns="http://www.w3.org/2000/svg">
<path d="M14.3139 13.7616L10.8349 10.2825C11.783 9.12297 12.2491 7.64339 12.1369 6.14981C12.0247 4.65622 11.3427 3.26291 10.232 2.25806C9.12125 1.25322 7.66681 0.713717 6.16949 0.751154C4.67217 0.788592 3.24651 1.4001 2.18741 2.4592C1.12831 3.5183 0.516803 4.94396 0.479365 6.44128C0.441927 7.9386 0.981428 9.39304 1.98627 10.5037C2.99112 11.6144 4.38444 12.2964 5.87802 12.4087C7.3716 12.5209 8.85118 12.0547 10.0107 11.1067L13.4898 14.5857C13.5997 14.6919 13.7469 14.7506 13.8997 14.7493C14.0526 14.748 14.1988 14.6867 14.3068 14.5786C14.4149 14.4705 14.4762 14.3244 14.4775 14.1715C14.4788 14.0187 14.4201 13.8715 14.3139 13.7616ZM6.32474 11.2594C5.40252 11.2594 4.50101 10.9859 3.73421 10.4735C2.96741 9.96118 2.36976 9.23294 2.01684 8.38092C1.66392 7.5289 1.57158 6.59136 1.7515 5.68685C1.93142 4.78235 2.37551 3.95152 3.02762 3.29941C3.67973 2.6473 4.51056 2.20321 5.41507 2.02329C6.31957 1.84337 7.25711 1.93571 8.10913 2.28863C8.96115 2.64155 9.68939 3.2392 10.2017 4.006C10.7141 4.7728 10.9876 5.67431 10.9876 6.59653C10.9862 7.83276 10.4945 9.01797 9.62033 9.89212C8.74618 10.7663 7.56097 11.258 6.32474 11.2594Z" fill="#565157"/>
</svg>
