<svg width="25" height="25" viewBox="0 0 25 25" fill="none" xmlns="http://www.w3.org/2000/svg">
<g clip-path="url(#clip0_204_18)">
<path d="M24.978 17.306C24.841 18.265 24.072 19 23.142 19H22.523C21.497 19 20.666 18.105 20.666 17C20.666 18.105 19.835 19 18.809 19H18.19C17.164 19 16.333 18.105 16.333 17C16.333 18.105 15.502 19 14.476 19H13.857C12.928 19 12.158 18.265 12.021 17.306C11.993 17.107 12.039 16.903 12.116 16.717L12.471 15.856C12.934 14.733 14.029 14 15.244 14H21.753C22.968 14 24.063 14.733 24.526 15.856L24.881 16.717C24.958 16.903 25.005 17.107 24.976 17.306H24.978ZM23 20C22.447 20 22 20.448 22 21V22C22 22.551 21.552 23 21 23H16C15.448 23 15 22.551 15 22V21C15 20.448 14.553 20 14 20C13.447 20 13 20.448 13 21V22C13 23.654 14.346 25 16 25H21C22.654 25 24 23.654 24 22V21C24 20.448 23.553 20 23 20ZM3 7C3 3.691 5.691 1 9 1C12.309 1 15 3.691 15 7C15 10.309 12.309 13 9 13C5.691 13 3 10.309 3 7ZM5 7C5 9.206 6.794 11 9 11C11.206 11 13 9.206 13 7C13 4.794 11.206 3 9 3C6.794 3 5 4.794 5 7ZM9 15C4.589 15 1 18.589 1 23V24C1 24.552 1.447 25 2 25C2.553 25 3 24.552 3 24V23C3 19.691 5.691 17 9 17C9.553 17 10 16.552 10 16C10 15.448 9.553 15 9 15Z" fill="#F4BEFF"/>
</g>
<defs>
<clipPath id="clip0_204_18">
<rect width="24" height="24" fill="white" transform="translate(1 1)"/>
</clipPath>
</defs>
</svg>
