<svg width="27" height="23" viewBox="0 0 27 23" fill="none" xmlns="http://www.w3.org/2000/svg">
<path d="M8.34507 12.8783C8.70001 12.4711 8.41087 11.8354 7.87069 11.8354H6.2534C6.24286 11.6753 6.23697 11.5141 6.23697 11.3515C6.23697 7.3219 9.5152 4.04367 13.5447 4.04367C15.4812 4.04367 17.2438 4.80099 18.5528 6.03468L20.8333 3.36673C18.837 1.54049 16.2678 0.540161 13.5447 0.540161C10.6569 0.540161 7.94199 1.66476 5.9 3.7067C3.85806 5.74869 2.73346 8.46362 2.73346 11.3514C2.73346 11.5133 2.73751 11.6746 2.74455 11.8353H1.38229C0.842106 11.8353 0.552918 12.4711 0.907912 12.8782L4.62646 17.1436L8.34507 12.8783Z" fill="#8FC695"/>
<path d="M26.1816 10.8217L22.463 6.55629L18.7445 10.8217C18.3895 11.2288 18.6786 11.8646 19.2188 11.8646H20.8342C20.57 15.6556 17.4017 18.6592 13.5448 18.6592C11.8611 18.6592 10.3088 18.0866 9.07183 17.1262L6.79113 19.7944C8.70176 21.3287 11.059 22.1627 13.5448 22.1627C16.4326 22.1627 19.1475 21.0382 21.1895 18.9962C23.1101 17.0756 24.2188 14.5597 24.3439 11.8646H25.7072C26.2474 11.8646 26.5365 11.2288 26.1816 10.8217Z" fill="#8FC695"/>
</svg>
