<svg width="25" height="25" viewBox="0 0 25 25" fill="none" xmlns="http://www.w3.org/2000/svg">
<path d="M6.9327 17.9962C7.8263 17.9962 8.5507 17.2288 8.5507 16.2823C8.5507 15.3358 7.8263 14.5684 6.9327 14.5684C6.03909 14.5684 5.31469 15.3358 5.31469 16.2823C5.31469 17.2288 6.03909 17.9962 6.9327 17.9962Z" fill="#F4BEFF"/>
<path d="M19.6066 2H6.39336C4.96348 2.00181 3.59265 2.60429 2.58157 3.67528C1.57049 4.74627 1.00171 6.19832 1 7.71292V16.8536C1.00171 18.3682 1.57049 19.8202 2.58157 20.8912C3.59265 21.9622 4.96348 22.5647 6.39336 22.5665H19.6066C21.0365 22.5647 22.4074 21.9622 23.4184 20.8912C24.4295 19.8202 24.9983 18.3682 25 16.8536V7.71292C24.9983 6.19832 24.4295 4.74627 23.4184 3.67528C22.4074 2.60429 21.0365 2.00181 19.6066 2ZM6.39336 4.28517H19.6066C20.4649 4.28517 21.288 4.64631 21.8949 5.28913C22.5017 5.93196 22.8427 6.80382 22.8427 7.71292H3.15734C3.15734 6.80382 3.49828 5.93196 4.10515 5.28913C4.71202 4.64631 5.53512 4.28517 6.39336 4.28517ZM19.6066 20.2813H6.39336C5.53512 20.2813 4.71202 19.9202 4.10515 19.2774C3.49828 18.6346 3.15734 17.7627 3.15734 16.8536V9.99809H22.8427V16.8536C22.8427 17.7627 22.5017 18.6346 21.8949 19.2774C21.288 19.9202 20.4649 20.2813 19.6066 20.2813Z" fill="#F4BEFF"/>
</svg>
