<svg width="19" height="18" viewBox="0 0 19 18" fill="none" xmlns="http://www.w3.org/2000/svg">
<g clip-path="url(#clip0_246_4)">
<path d="M6.39781 4.12897L8.71418 1.93374L8.70865 13.5121C8.70865 13.9263 9.06308 14.262 9.50029 14.262C9.93751 14.262 10.2919 13.9263 10.2919 13.5121L10.2975 1.9465L12.6028 4.13122C12.9173 4.41897 13.4184 4.41074 13.7222 4.11279C14.0185 3.82216 14.0185 3.36138 13.7222 3.07074L11.1802 0.659521C10.253 -0.219442 8.74925 -0.219899 7.82145 0.658502C7.82108 0.658853 7.82075 0.659169 7.82038 0.659521L5.27839 3.06849C4.97465 3.36644 4.98334 3.84122 5.29783 4.12897C5.60461 4.40968 6.091 4.40968 6.39781 4.12897Z" fill="#691C78"/>
<path d="M18.2085 12.0001C17.7713 12.0001 17.4168 12.3358 17.4168 12.7501V15.75C17.4168 16.1642 17.0624 16.5 16.6252 16.5H2.37541C1.9382 16.5 1.58377 16.1642 1.58377 15.75V12.7501C1.58377 12.3358 1.22935 12.0001 0.79213 12.0001C0.354914 12.0001 0.000488281 12.3358 0.000488281 12.7501V15.75C0.000488281 16.9926 1.0638 18 2.37545 18H16.6252C17.9369 18 19.0002 16.9926 19.0002 15.75V12.7501C19.0001 12.3358 18.6457 12.0001 18.2085 12.0001Z" fill="#691C78"/>
</g>
<defs>
<clipPath id="clip0_246_4">
<rect width="19" height="18" fill="white"/>
</clipPath>
</defs>
</svg>
