<svg width="19" height="14" viewBox="0 0 19 14" fill="none" xmlns="http://www.w3.org/2000/svg">
<path d="M18.1095 2.91803C17.5806 2.65359 16.957 2.70914 16.4845 3.06511C16.454 3.0878 16.425 3.11362 16.3984 3.14022L15.0238 4.52736C14.8587 2.52059 13.1923 0.933167 11.144 0.933167H4.10275C1.94577 0.932384 0.190918 2.68723 0.190918 4.84422V9.53841C0.190918 11.6954 1.94577 13.4502 4.10275 13.4502H11.144C13.2009 13.4502 14.8744 11.8487 15.0261 9.83024L16.4 11.2025C16.4266 11.2283 16.454 11.2518 16.4837 11.2745C16.7591 11.481 17.0846 11.5859 17.4131 11.5859C17.6502 11.5859 17.8873 11.5319 18.1095 11.4208C18.6391 11.1563 18.9677 10.6236 18.9677 10.0329V4.30751C18.9677 3.71526 18.6391 3.18247 18.1095 2.91803ZM11.144 11.8855H4.10275C2.80872 11.8855 1.75565 10.8324 1.75565 9.53841V4.84422C1.75565 3.55018 2.80872 2.49712 4.10275 2.49712H11.144C12.4381 2.49712 13.4911 3.55018 13.4911 4.84422V9.53841C13.4911 10.8324 12.4381 11.8855 11.144 11.8855ZM15.0559 7.64744V6.7172L17.403 4.3482L17.4225 10.011L15.0559 7.64744Z" fill="#DEDDEB"/>
</svg>
