<svg width="19" height="19" viewBox="0 0 19 19" fill="none" xmlns="http://www.w3.org/2000/svg">
<path d="M16.2664 9.68793H14.0519C13.2377 9.68793 12.5756 10.3501 12.5756 11.1642C12.5756 11.9784 11.9135 12.6405 11.0993 12.6405H8.14668C7.33249 12.6405 6.67037 11.9784 6.67037 11.1642C6.67037 10.3501 6.00825 9.68793 5.19406 9.68793H2.9796C1.75869 9.68793 0.765137 10.6815 0.765137 11.9024V14.855C0.765137 16.8901 2.42082 18.5458 4.45591 18.5458H14.7901C16.8252 18.5458 18.4808 16.8901 18.4808 14.855V11.9024C18.4808 10.6815 17.4873 9.68793 16.2664 9.68793ZM17.0045 14.855C17.0045 16.0759 16.011 17.0695 14.7901 17.0695H4.45591C3.235 17.0695 2.24144 16.0759 2.24144 14.855V11.9024C2.24144 11.4949 2.57214 11.1642 2.9796 11.1642L5.19406 11.1628V11.1642C5.19406 12.7926 6.51831 14.1169 8.14668 14.1169H11.0993C12.7277 14.1169 14.0519 12.7926 14.0519 11.1642H16.2664C16.6738 11.1642 17.0045 11.4949 17.0045 11.9024V14.855ZM6.1485 6.08647C5.85988 5.79786 5.85988 5.33134 6.1485 5.04272C6.43711 4.75411 6.90363 4.75411 7.19224 5.04272L8.88483 6.73531V1.56823C8.88483 1.16003 9.21479 0.830078 9.62299 0.830078C10.0312 0.830078 10.3611 1.16003 10.3611 1.56823V6.73531L12.0537 5.04272C12.3423 4.75411 12.8089 4.75411 13.0975 5.04272C13.3861 5.33134 13.3861 5.79786 13.0975 6.08647L10.6667 8.51721C10.3811 8.80288 10.0054 8.94682 9.62963 8.9483L9.62299 8.94977L9.61634 8.9483C9.24062 8.94682 8.8649 8.80288 8.57924 8.51721L6.1485 6.08647Z" fill="white"/>
</svg>
