<svg width="25" height="25" viewBox="0 0 25 25" fill="none" xmlns="http://www.w3.org/2000/svg">
<path d="M12.25 12C13.4697 12 14.6619 11.6481 15.676 10.9888C16.6901 10.3295 17.4805 9.39246 17.9473 8.2961C18.414 7.19975 18.5361 5.99335 18.2982 4.82946C18.0602 3.66557 17.4729 2.59648 16.6105 1.75736C15.7481 0.918247 14.6493 0.346802 13.4531 0.115291C12.2568 -0.11622 11.0169 0.00259972 9.89012 0.456725C8.76331 0.910851 7.80021 1.67989 7.1226 2.66658C6.445 3.65328 6.08333 4.81331 6.08333 6C6.08497 7.59081 6.73519 9.11601 7.89131 10.2409C9.04743 11.3658 10.615 11.9984 12.25 12ZM12.25 2C13.0631 2 13.8579 2.2346 14.534 2.67412C15.2101 3.11365 15.737 3.73836 16.0482 4.46927C16.3593 5.20017 16.4407 6.00444 16.2821 6.78036C16.1235 7.55629 15.7319 8.26902 15.157 8.82843C14.582 9.38784 13.8495 9.7688 13.052 9.92314C12.2546 10.0775 11.428 9.99827 10.6767 9.69552C9.92554 9.39277 9.28347 8.88008 8.83174 8.22228C8.38 7.56449 8.13889 6.79113 8.13889 6C8.13889 4.93914 8.57202 3.92172 9.34301 3.17158C10.114 2.42143 11.1597 2 12.25 2Z" fill="white"/>
<path d="M12.25 14C9.79758 14.0026 7.44639 14.9517 5.71227 16.639C3.97814 18.3262 3.00272 20.6139 3 23C3 23.2652 3.10828 23.5196 3.30103 23.7071C3.49377 23.8946 3.75519 24 4.02778 24C4.30036 24 4.56178 23.8946 4.75453 23.7071C4.94727 23.5196 5.05556 23.2652 5.05556 23C5.05556 21.1435 5.81354 19.363 7.16276 18.0503C8.51198 16.7375 10.3419 16 12.25 16C14.1581 16 15.988 16.7375 17.3372 18.0503C18.6865 19.363 19.4444 21.1435 19.4444 23C19.4444 23.2652 19.5527 23.5196 19.7455 23.7071C19.9382 23.8946 20.1996 24 20.4722 24C20.7448 24 21.0062 23.8946 21.199 23.7071C21.3917 23.5196 21.5 23.2652 21.5 23C21.4973 20.6139 20.5219 18.3262 18.7877 16.639C17.0536 14.9517 14.7024 14.0026 12.25 14Z" fill="white"/>
</svg>
